<svg width="19" height="19" viewBox="0 0 19 19" fill="none" xmlns="http://www.w3.org/2000/svg">
<path d="M12.4766 10.175V13.325C12.4766 15.95 11.4266 17 8.80156 17H5.65156C3.02656 17 1.97656 15.95 1.97656 13.325V10.175C1.97656 7.55 3.02656 6.5 5.65156 6.5H8.80156C11.4266 6.5 12.4766 7.55 12.4766 10.175Z" stroke="#999999" stroke-width="1.5" stroke-linecap="round" stroke-linejoin="round"/>
<path d="M16.9766 5.675V8.825C16.9766 11.45 15.9266 12.5 13.3016 12.5H12.4766V10.175C12.4766 7.55 11.4266 6.5 8.80156 6.5H6.47656V5.675C6.47656 3.05 7.52656 2 10.1516 2H13.3016C15.9266 2 16.9766 3.05 16.9766 5.675Z" stroke="#999999" stroke-width="1.5" stroke-linecap="round" stroke-linejoin="round"/>
</svg>
