<svg width="149" height="98" viewBox="0 0 149 98" fill="none" xmlns="http://www.w3.org/2000/svg">
<path d="M132.109 29.4482L130.221 38.5328L129.005 37.3548L126.937 38.8209L125.356 36.8707L121.812 39.4305L118.783 34.3991L115.405 36.365L114.065 34.5305L109.775 36.9315L108.484 34.1855L111.492 19.7188L127.614 23.0253L132.109 29.4482Z" fill="#EBEBEB"/>
<path d="M127.613 23.0312L132.108 29.4542L126.516 28.3076L127.613 23.0312Z" fill="#DBDBDB"/>
<path d="M129.813 40.3531L127.045 53.6811L105.328 49.228L108.077 36.0078L109.368 38.7518L113.66 36.3508L114.997 38.1854L118.378 36.2215L121.405 41.2528L124.951 38.693L126.53 40.6413L128.6 39.1771L129.813 40.3531Z" fill="#EBEBEB"/>
<path d="M98.7329 38.7892L76.602 40.1494L74.8438 11.9332L91.2777 10.9219L97.3102 15.9493L98.7329 38.7892Z" fill="#EBEBEB"/>
<path d="M91.2812 10.9219L97.3137 15.9493L91.6147 16.3001L91.2812 10.9219Z" fill="#DBDBDB"/>
<path d="M85.1543 29.9105L85.0674 29.2735C84.8445 27.9544 85.2075 26.4785 86.3619 24.936C87.4039 23.564 87.9682 22.584 87.9051 21.4707C87.8341 20.2163 86.9954 19.4245 85.4345 19.4872C84.5424 19.5332 83.6856 19.8477 82.9777 20.3888L82.2969 18.8737C83.0862 18.2367 84.4675 17.7663 85.7798 17.6977C88.6273 17.5409 90.0126 19.2147 90.1211 21.0826C90.2159 22.7545 89.3436 24.0109 88.2346 25.4789C87.2164 26.8176 86.8829 27.9211 87.027 29.1696L87.0881 29.8085L85.1543 29.9105ZM84.803 33.3816C84.7517 32.4722 85.3338 31.7979 86.2001 31.7509C87.0664 31.7039 87.6979 32.3075 87.7492 33.2189C87.7966 34.0794 87.2657 34.7732 86.3501 34.8242C85.4759 34.8732 84.8444 34.2421 84.7951 33.3816H84.803Z" fill="#DBDBDB"/>
<path d="M29.7974 25.1109L27.5715 24.1094L27.2617 24.7856C27.2159 24.8822 27.1445 24.9646 27.0552 25.024C26.9658 25.0834 26.8619 25.1175 26.7545 25.1227C26.6322 25.1267 26.5102 25.1385 26.3894 25.158C26.2834 25.1736 26.1751 25.1604 26.076 25.1196C25.977 25.0789 25.8909 25.0122 25.827 24.9267L25.3909 24.3211L23.4038 25.7362L23.8399 26.3418C23.9006 26.4292 23.9362 26.5313 23.9432 26.6373C23.9501 26.7432 23.9281 26.849 23.8794 26.9435C23.8231 27.0513 23.7724 27.1619 23.7274 27.2748C23.6883 27.3743 23.6227 27.4614 23.5375 27.5267C23.4523 27.592 23.3508 27.6329 23.2439 27.6452L22.5 27.7177L22.7388 30.1344L23.4867 30.0599C23.5939 30.0514 23.7015 30.0721 23.7978 30.1198C23.8941 30.1674 23.9755 30.2402 24.0333 30.3304C24.0649 30.3814 24.0984 30.4304 24.1339 30.4794C24.1694 30.5284 24.205 30.5754 24.2425 30.6225C24.3105 30.7048 24.3543 30.8042 24.369 30.9097C24.3836 31.0152 24.3685 31.1227 24.3253 31.2203L24.0135 31.9023L26.2414 32.9059L26.5513 32.2257C26.5974 32.1292 26.6692 32.047 26.7589 31.9879C26.8486 31.9289 26.9529 31.8952 27.0604 31.8906C27.1813 31.8856 27.3019 31.8738 27.4215 31.8553C27.5275 31.8397 27.6359 31.8529 27.7349 31.8936C27.834 31.9344 27.92 32.0011 27.9839 32.0866L28.42 32.6922L30.4091 31.2771L29.973 30.6715C29.9105 30.5848 29.8737 30.4826 29.8667 30.3762C29.8597 30.2698 29.8829 30.1637 29.9335 30.0697C29.9885 29.9626 30.0379 29.8527 30.0815 29.7405C30.1195 29.6402 30.1848 29.5524 30.2702 29.487C30.3556 29.4215 30.4577 29.381 30.565 29.37L31.3129 29.2955L31.0722 26.8789L30.3243 26.9514C30.2177 26.9607 30.1106 26.9405 30.0148 26.8931C29.919 26.8457 29.8383 26.773 29.7816 26.6829C29.7481 26.6319 29.7145 26.5829 29.679 26.5339C29.6435 26.4849 29.6079 26.4359 29.5705 26.3908C29.5028 26.3075 29.4593 26.2074 29.4447 26.1014C29.4301 25.9954 29.4449 25.8874 29.4876 25.7891L29.7974 25.1109ZM28.5345 27.3473C28.7652 27.6671 28.8953 28.0478 28.9082 28.4411C28.9212 28.8343 28.8164 29.2226 28.6072 29.5567C28.398 29.8909 28.0937 30.1559 27.7328 30.3182C27.3719 30.4806 26.9707 30.533 26.5798 30.4689C26.189 30.4047 25.826 30.2269 25.5369 29.9578C25.2478 29.6888 25.0455 29.3406 24.9557 28.9574C24.8658 28.5742 24.8924 28.1731 25.032 27.8048C25.1717 27.4366 25.4181 27.1178 25.7402 26.8887C26.172 26.5815 26.709 26.4573 27.2329 26.5433C27.7569 26.6293 28.2251 26.9185 28.5345 27.3473Z" fill="#EBEBEB"/>
<path d="M130.418 57.1719L128.934 58.0225L129.196 58.4733C129.235 58.538 129.255 58.6125 129.252 58.688C129.25 58.7634 129.226 58.8366 129.182 58.8986C129.137 58.9692 129.093 59.0417 129.054 59.1182C129.022 59.1858 128.97 59.2427 128.906 59.2823C128.842 59.3219 128.768 59.3425 128.693 59.3416H128.172V61.0448H128.697C128.772 61.0439 128.846 61.0645 128.91 61.1041C128.974 61.1437 129.025 61.2007 129.058 61.2683C129.097 61.3447 129.141 61.4172 129.186 61.4878C129.229 61.5498 129.254 61.623 129.256 61.6984C129.259 61.7739 129.239 61.8484 129.2 61.9131L128.938 62.3639L130.421 63.2146L130.686 62.7618C130.724 62.6976 130.78 62.6452 130.846 62.6106C130.913 62.576 130.988 62.5605 131.063 62.5658H131.315C131.39 62.5607 131.465 62.5763 131.532 62.6109C131.598 62.6455 131.654 62.6977 131.692 62.7618L131.957 63.2165L133.439 62.3659L133.176 61.9131C133.139 61.8481 133.121 61.774 133.123 61.6992C133.126 61.6244 133.15 61.5519 133.192 61.4898C133.237 61.4192 133.281 61.3447 133.32 61.2702C133.353 61.2026 133.404 61.1456 133.468 61.106C133.532 61.0664 133.606 61.0459 133.681 61.0468H134.206V59.3436H133.677C133.602 59.3445 133.528 59.3239 133.464 59.2843C133.4 59.2447 133.349 59.1877 133.316 59.1201C133.277 59.0456 133.233 58.9712 133.188 58.9006C133.146 58.8385 133.122 58.766 133.119 58.6912C133.117 58.6163 133.135 58.5423 133.172 58.4772L133.435 58.0245L131.953 57.1738L131.688 57.6207C131.65 57.6849 131.595 57.7373 131.528 57.7719C131.461 57.8065 131.386 57.822 131.311 57.8167H131.185H131.059C130.984 57.8217 130.909 57.8061 130.842 57.7715C130.775 57.737 130.719 57.6848 130.68 57.6207L130.418 57.1719ZM131.185 58.7987C131.463 58.7983 131.735 58.8799 131.966 59.033C132.198 59.1862 132.378 59.4042 132.485 59.6592C132.591 59.9143 132.619 60.1951 132.565 60.466C132.511 60.7369 132.377 60.9857 132.181 61.181C131.984 61.3763 131.733 61.5092 131.461 61.563C131.188 61.6168 130.905 61.589 130.649 61.4831C130.392 61.3772 130.172 61.1981 130.018 60.9683C129.864 60.7385 129.782 60.4684 129.782 60.1922C129.782 60.0091 129.818 59.8276 129.888 59.6583C129.959 59.489 130.062 59.3352 130.192 59.2056C130.323 59.076 130.477 58.9731 130.648 58.903C130.818 58.8328 131.001 58.7967 131.185 58.7967V58.7987Z" fill="#EBEBEB"/>
<path d="M34.2974 17.8659L32.9377 18.9008L33.2515 19.3143C33.2983 19.3733 33.3271 19.4443 33.3344 19.519C33.3418 19.5937 33.3274 19.6689 33.2929 19.7357C33.2552 19.812 33.2222 19.8906 33.1943 19.9709C33.1699 20.0417 33.1262 20.1044 33.068 20.1518C33.0098 20.1992 32.9394 20.2296 32.8647 20.2394L32.3438 20.3061L32.5648 21.9936L33.0857 21.927C33.1616 21.9165 33.2388 21.9275 33.3087 21.9587C33.3785 21.9899 33.438 22.0401 33.4804 22.1034C33.5279 22.1716 33.5793 22.237 33.6343 22.2994C33.6851 22.3549 33.7189 22.4238 33.7315 22.4978C33.7441 22.5718 33.735 22.6478 33.7054 22.7169L33.508 23.199L35.0867 23.8517L35.284 23.3696C35.3134 23.3004 35.3617 23.2408 35.4234 23.1975C35.4851 23.1542 35.5579 23.1289 35.6333 23.1246L35.7596 23.1108L35.8839 23.0912C35.9569 23.0776 36.0323 23.0841 36.1019 23.11C36.1715 23.1359 36.2326 23.1803 36.2786 23.2382L36.6002 23.6557L37.9599 22.6208L37.6422 22.2073C37.5963 22.1475 37.5681 22.0763 37.5608 22.0015C37.5534 21.9267 37.5673 21.8513 37.6007 21.7839C37.6381 21.7081 37.6711 21.6303 37.6994 21.5507C37.7237 21.4799 37.7674 21.4173 37.8257 21.3698C37.8839 21.3224 37.9543 21.292 38.0289 21.2822L38.5499 21.2155L38.3289 19.528L37.8079 19.5946C37.7323 19.6053 37.6551 19.5946 37.5853 19.5638C37.5155 19.5329 37.4559 19.4831 37.4132 19.4202C37.3639 19.3496 37.3126 19.283 37.2574 19.2242C37.2114 19.1674 37.1816 19.0995 37.1712 19.0274C37.1608 18.9553 37.1701 18.8818 37.1982 18.8145L37.3955 18.3324L35.8168 17.6797L35.6195 18.1618C35.5897 18.2308 35.5414 18.2901 35.4797 18.3334C35.418 18.3766 35.3455 18.402 35.2702 18.4068L35.1439 18.4186L35.0275 18.4225C34.9545 18.4362 34.8791 18.4297 34.8095 18.4038C34.7399 18.3779 34.6788 18.3335 34.6328 18.2755L34.2974 17.8659ZM35.2702 19.381C35.5451 19.3459 35.8243 19.3924 36.0726 19.5147C36.3208 19.6371 36.5271 19.8297 36.6653 20.0683C36.8035 20.3069 36.8674 20.5808 36.849 20.8555C36.8307 21.1301 36.7308 21.3933 36.5621 21.6116C36.3934 21.83 36.1633 21.9938 35.9009 22.0825C35.6385 22.1711 35.3556 22.1806 35.0878 22.1097C34.82 22.0388 34.5793 21.8908 34.3962 21.6842C34.213 21.4776 34.0955 21.2218 34.0586 20.949C34.0339 20.7669 34.0457 20.5818 34.0934 20.4043C34.141 20.2268 34.2235 20.0604 34.3361 19.9147C34.4487 19.769 34.5892 19.6468 34.7495 19.5552C34.9098 19.4636 35.0868 19.4044 35.2702 19.381Z" fill="#EBEBEB"/>
<path d="M24.138 62.0862C24.2121 60.1915 24.1858 58.2942 24.0591 56.4022C23.7767 52.4954 23.1768 48.6177 22.2653 44.8069C21.7641 42.6626 21.1484 40.5537 20.5051 38.4467C20.4853 38.382 20.3827 38.3996 20.4005 38.4663C22.3876 45.8947 24.0176 53.5583 23.9051 61.2807C23.8736 63.4367 23.621 65.5633 23.4157 67.7114C23.4157 67.7683 23.5045 67.7918 23.5184 67.733C23.9268 65.8886 24.061 63.9639 24.138 62.0862Z" fill="#EBEBEB"/>
<path d="M20.4014 38.4609C20.4014 38.4609 17.394 46.0461 18.0669 47.8219C18.7398 49.5977 20.129 49.9779 20.129 49.9779C20.129 49.9779 18.2879 52.5886 19.5745 55.0367C20.8611 57.4847 23.7185 57.3691 23.9159 60.1444C23.9099 60.1581 24.0678 48.553 20.4014 38.4609Z" fill="#EBEBEB"/>
<path d="M23.583 55.3692C23.5879 55.3566 23.5879 55.3426 23.583 55.33C23.1883 50.1515 22.21 45.0333 20.6664 40.0714C20.6664 40.0577 20.6368 40.0616 20.6408 40.0714C21.2367 42.2927 21.763 44.5232 22.2195 46.7628C21.8152 46.3824 21.3212 46.1088 20.7829 45.9671C20.7829 45.9671 20.7671 45.9788 20.7829 45.9827C21.3484 46.1886 21.8569 46.5244 22.2668 46.9627C22.3536 47.4037 22.4405 47.8428 22.5214 48.2838C21.8485 47.537 20.9171 47.1666 19.9837 46.8138C19.9816 46.8147 19.9798 46.8162 19.9785 46.8181C19.9772 46.82 19.9766 46.8223 19.9766 46.8246C19.9766 46.8268 19.9772 46.8291 19.9785 46.831C19.9798 46.8329 19.9816 46.8344 19.9837 46.8353C20.9565 47.2273 21.9235 47.733 22.5826 48.566C22.8115 49.8243 23.0127 51.0872 23.1864 52.3547C22.7005 51.8491 22.0774 51.4944 21.3926 51.3335C21.3709 51.3335 21.3591 51.359 21.3808 51.3649C22.0842 51.5707 22.7123 51.9752 23.1884 52.5291H23.2002C23.2594 52.9734 23.316 53.4196 23.3699 53.8678C22.994 53.5519 22.5697 53.2978 22.1129 53.1152C22.1011 53.1152 22.0932 53.1289 22.1129 53.1328C22.579 53.3334 23.0059 53.614 23.3739 53.9619C23.3739 53.9619 23.3837 53.9619 23.3896 53.9619C23.439 54.3872 23.4883 54.8125 23.5317 55.2379C22.8541 54.4242 21.9747 53.8 20.9802 53.4268C20.976 53.4268 20.972 53.4285 20.969 53.4314C20.9661 53.4344 20.9644 53.4383 20.9644 53.4425C20.9644 53.4467 20.9661 53.4507 20.969 53.4536C20.972 53.4565 20.976 53.4582 20.9802 53.4582C21.9622 53.8881 22.8248 54.5478 23.4942 55.3809C23.5016 55.3901 23.5115 55.3968 23.5228 55.4003C23.534 55.4038 23.5461 55.4039 23.5574 55.4005C23.6225 56.0532 23.6817 56.7059 23.7291 57.3605C23.7291 57.3703 23.7448 57.3703 23.7448 57.3605C23.6935 56.7033 23.6396 56.0395 23.583 55.3692Z" fill="white"/>
<path d="M21.1632 45.2168C20.6185 44.8801 19.9963 44.6872 19.3556 44.6562C19.3524 44.6563 19.3494 44.6575 19.3472 44.6597C19.345 44.6619 19.3438 44.6649 19.3438 44.668C19.3438 44.6711 19.345 44.6741 19.3472 44.6763C19.3494 44.6785 19.3524 44.6798 19.3556 44.6798C19.9751 44.7965 20.5763 44.9942 21.1434 45.2678C21.1671 45.2736 21.1849 45.2325 21.1632 45.2168Z" fill="white"/>
<path d="M21.5343 53.2497C21.1157 53.011 20.6548 52.8547 20.1767 52.7891C20.1609 52.7891 20.1589 52.8106 20.1767 52.8145C20.6435 52.9076 21.0951 53.0646 21.5185 53.281C21.5363 53.2908 21.5521 53.2595 21.5343 53.2497Z" fill="white"/>
<path d="M32.0531 47.9519C30.7809 48.8254 29.6124 49.8393 28.5702 50.9742C27.4953 52.1759 26.6662 53.5739 26.1292 55.0902C24.9862 58.2493 24.3716 61.573 24.3098 64.9294C24.2714 66.7881 24.4509 68.645 24.8445 70.4625C24.8477 70.4757 24.8559 70.4872 24.8674 70.4946C24.8789 70.5019 24.8928 70.5047 24.9062 70.5021C24.9197 70.4996 24.9316 70.4921 24.9396 70.481C24.9476 70.47 24.951 70.4563 24.9491 70.4429C24.4593 67.2356 24.4779 63.9719 25.0044 60.7703C25.5214 57.6343 26.3324 54.22 28.3413 51.67C29.4345 50.2804 30.7981 49.1886 32.1459 48.0597C32.2169 47.997 32.1261 47.9009 32.0531 47.9519Z" fill="#EBEBEB"/>
<path d="M24.75 62.6674C25.4742 61.504 26.3252 60.4234 27.2877 59.4452C28.7934 57.9497 30.0602 56.8874 30.2576 55.8995C30.4549 54.9117 28.7499 54.1826 28.7499 54.1826C28.7499 54.1826 30.8318 54.555 31.4021 53.6867C31.9724 52.8184 32.2467 47.7891 32.2467 47.7891C32.2467 47.7891 28.4579 50.4762 26.6918 54.2433C24.9256 58.0105 24.75 62.6674 24.75 62.6674Z" fill="#EBEBEB"/>
<path d="M30.8847 52.5125C30.6352 52.4756 30.3823 52.4671 30.1308 52.487C30.1012 52.487 30.1032 52.538 30.1308 52.54C30.3795 52.54 30.6301 52.5282 30.8787 52.54C30.8816 52.5392 30.8842 52.5377 30.8862 52.5356C30.8882 52.5335 30.8896 52.5309 30.8902 52.5281C30.8909 52.5252 30.8907 52.5222 30.8897 52.5195C30.8887 52.5168 30.8869 52.5143 30.8847 52.5125Z" fill="white"/>
<path d="M28.1682 57.3906C27.7681 57.3987 27.3726 57.477 27 57.6219C27 57.6219 27 57.6415 27 57.6395C27.3947 57.5474 27.7755 57.5102 28.1662 57.4435C28.1713 57.4413 28.1757 57.4377 28.1788 57.4332C28.182 57.4286 28.1837 57.4232 28.184 57.4177C28.1842 57.4122 28.1828 57.4067 28.18 57.4019C28.1772 57.3971 28.1731 57.3932 28.1682 57.3906Z" fill="white"/>
<path d="M27.3494 55.7032C27.1832 55.7019 27.0174 55.7163 26.854 55.7463C26.851 55.7474 26.8484 55.7494 26.8466 55.7521C26.8447 55.7547 26.8438 55.7578 26.8438 55.761C26.8438 55.7642 26.8447 55.7673 26.8466 55.77C26.8484 55.7726 26.851 55.7746 26.854 55.7757C27.0195 55.7852 27.1854 55.778 27.3494 55.7542C27.3562 55.7542 27.3627 55.7515 27.3675 55.7467C27.3723 55.7419 27.375 55.7354 27.375 55.7287C27.375 55.7219 27.3723 55.7154 27.3675 55.7107C27.3627 55.7059 27.3562 55.7032 27.3494 55.7032Z" fill="white"/>
<path d="M13.6386 53.2926C14.8718 53.7079 16.0535 54.2608 17.161 54.941C18.3102 55.6663 19.3067 56.6061 20.0954 57.7085C21.7547 60.0027 23.0252 62.551 23.8565 65.2525C24.3202 66.7484 24.6063 68.2929 24.709 69.8546C24.7069 69.8647 24.7013 69.8738 24.6932 69.8803C24.6851 69.8868 24.675 69.8903 24.6646 69.8903C24.6542 69.8903 24.6441 69.8868 24.636 69.8803C24.628 69.8738 24.6224 69.8647 24.6202 69.8546C24.2719 67.1467 23.4982 64.5099 22.3272 62.0401C21.1768 59.6195 19.7264 57.0441 17.5083 55.4408C16.3006 54.5686 14.943 53.9963 13.5893 53.3926C13.5182 53.3691 13.5676 53.2691 13.6386 53.2926Z" fill="#EBEBEB"/>
<path d="M22.9745 63.5206C22.1172 62.7458 21.1769 62.0669 20.1704 61.4959C18.6036 60.6315 17.3308 60.0631 16.9421 59.3085C16.5533 58.5539 17.763 57.5739 17.763 57.5739C17.763 57.5739 16.1646 58.3579 15.5015 57.7797C14.8385 57.2015 13.4453 53.2031 13.4453 53.2031C13.4453 53.2031 17.1374 54.5065 19.4403 57.1506C21.7432 59.7946 22.9745 63.5206 22.9745 63.5206Z" fill="#EBEBEB"/>
<path d="M19.9094 59.8428C19.5464 59.8176 19.182 59.8622 18.8359 59.9741C18.8359 59.9741 18.8359 59.9917 18.8359 59.9898C19.1889 59.9296 19.5456 59.893 19.9035 59.88C19.9292 59.88 19.9351 59.8447 19.9094 59.8428Z" fill="white"/>
<path d="M16.6862 55.6466C16.5206 55.6332 16.354 55.6424 16.1909 55.674C16.1731 55.674 16.1791 55.7054 16.1909 55.7034C16.3547 55.6858 16.5145 55.6917 16.6763 55.6878C16.6814 55.688 16.6863 55.6864 16.6903 55.6834C16.6943 55.6804 16.6971 55.6761 16.6983 55.6712C16.6995 55.6663 16.6989 55.6612 16.6967 55.6567C16.6945 55.6523 16.6908 55.6487 16.6862 55.6466Z" fill="white"/>
<path d="M27.7396 74.9092H19.4062L20.5942 66.2636L20.8981 64.0469H26.2478L26.5517 66.2636L27.7396 74.9092Z" fill="#DBDBDB"/>
<path d="M26.5512 66.2636H20.5938L20.8976 64.0469H26.2473L26.5512 66.2636Z" fill="#C7C7C7"/>
<path d="M27.0119 63.2734H20.1328V65.1511H27.0119V63.2734Z" fill="#DBDBDB"/>
<path d="M14.1094 74.9105L29.1087 74.8635L44.108 74.8458L74.1066 74.8125L104.105 74.8458L119.105 74.8635L134.104 74.9105L119.105 74.9595L104.105 74.9752L74.1066 75.0085L44.108 74.9752L29.1087 74.9575L14.1094 74.9105Z" fill="#263238"/>
<path d="M74.4974 89.512C105.748 89.512 131.081 86.7548 131.081 83.3536C131.081 79.9525 105.748 77.1953 74.4974 77.1953C43.2473 77.1953 17.9141 79.9525 17.9141 83.3536C17.9141 86.7548 43.2473 89.512 74.4974 89.512Z" fill="#EBEBEB"/>
<path d="M61.334 82.3367C60.8742 82.4915 47.6904 82.5327 47.1852 82.223C46.9878 82.1054 46.8754 80.1983 46.7905 77.8895C46.7728 77.3916 46.7589 76.8761 46.7471 76.3548L45.6953 69.3693L54.5102 69.3125L55.341 76.2999L55.3074 77.8365C55.3074 77.8365 60.3631 80.0611 60.8801 80.4649C61.3971 80.8687 61.7938 82.1819 61.334 82.3367Z" fill="#EB9481"/>
<path d="M61.329 82.3415C60.8692 82.4963 47.6854 82.5375 47.1802 82.2278C46.9473 82.0828 46.821 79.2976 46.75 76.3596L55.3261 76.3047L55.2926 77.8413C55.2926 77.8413 60.3482 80.0659 60.8653 80.4697C61.3823 80.8734 61.7888 82.1866 61.329 82.3415Z" fill="white"/>
<path d="M61.3325 82.3361C60.8727 82.4909 47.6889 82.5321 47.1837 82.2224C46.9864 82.1048 46.8739 80.1977 46.7891 77.8889L55.2882 77.8359C55.2882 77.8359 60.3439 80.0605 60.8609 80.4643C61.3779 80.8681 61.7923 82.1813 61.3325 82.3361Z" fill="#A6A6A6"/>
<path d="M61.1438 81.8121C58.9337 81.7651 50.0142 81.7866 47.8258 81.9082C47.8081 81.9082 47.8081 81.9199 47.8258 81.9219C50.0162 82.014 58.9357 81.9219 61.1438 81.8474C61.1912 81.8454 61.1912 81.8121 61.1438 81.8121Z" fill="#263238"/>
<path d="M60.0205 80.0004C59.7747 79.995 59.5305 80.0402 59.3032 80.1333C59.076 80.2264 58.8707 80.3654 58.7003 80.5414C58.3898 80.8555 58.2144 81.2772 58.2109 81.7174C58.2109 81.7311 58.2346 81.7311 58.2366 81.7174C58.31 81.2838 58.5226 80.8853 58.8426 80.5815C59.1627 80.2778 59.5731 80.0849 60.0126 80.0318C60.0168 80.0328 60.0212 80.0322 60.0249 80.03C60.0286 80.0278 60.0313 80.0242 60.0323 80.02C60.0334 80.0159 60.0327 80.0115 60.0305 80.0078C60.0283 80.0041 60.0247 80.0015 60.0205 80.0004Z" fill="#263238"/>
<path d="M56.1496 78.0549C55.2656 78.0451 54.2414 78.3587 53.6928 79.08C53.6731 79.1074 53.7126 79.1368 53.7382 79.1231C54.5106 78.7182 55.3243 78.3962 56.1654 78.1627C56.1784 78.1592 56.1897 78.151 56.1971 78.1398C56.2045 78.1286 56.2075 78.1151 56.2055 78.1019C56.2036 78.0886 56.1968 78.0765 56.1865 78.0679C56.1762 78.0592 56.1631 78.0546 56.1496 78.0549Z" fill="#263238"/>
<path d="M56.8381 78.3125C55.952 78.3125 54.9279 78.6183 54.3813 79.3376C54.3596 79.367 54.399 79.3964 54.4267 79.3827C55.1979 78.9763 56.011 78.6536 56.8519 78.4203C56.8647 78.4168 56.8759 78.4088 56.8832 78.3978C56.8906 78.3868 56.8938 78.3736 56.8921 78.3604C56.8904 78.3473 56.884 78.3353 56.8741 78.3265C56.8642 78.3176 56.8514 78.3127 56.8381 78.3125Z" fill="#263238"/>
<path d="M57.5246 78.5781C56.6406 78.5781 55.6164 78.8819 55.0678 79.6032C55.0481 79.6307 55.0876 79.6601 55.1132 79.6463C55.8856 79.2414 56.6993 78.9194 57.5404 78.6859C57.5534 78.6824 57.5647 78.6743 57.5721 78.6631C57.5795 78.6519 57.5825 78.6384 57.5805 78.6251C57.5786 78.6119 57.5718 78.5998 57.5615 78.5911C57.5512 78.5825 57.5381 78.5778 57.5246 78.5781Z" fill="#263238"/>
<path d="M58.2051 78.8362C57.319 78.8264 56.2949 79.14 55.7483 79.8612C55.7266 79.8887 55.768 79.9181 55.7937 79.9044C56.5659 79.4991 57.3796 79.1771 58.2209 78.944C58.2339 78.9404 58.2451 78.9323 58.2525 78.9211C58.2599 78.9099 58.2629 78.8964 58.2609 78.8831C58.259 78.8699 58.2523 78.8578 58.242 78.8491C58.2317 78.8405 58.2185 78.8359 58.2051 78.8362Z" fill="#263238"/>
<path d="M48.3806 79.8203C47.394 79.8203 47.394 81.3589 48.3806 81.353C49.3673 81.3472 49.3752 79.8144 48.3806 79.8203Z" fill="#263238"/>
<path d="M57.0994 75.7071C56.6514 75.3386 56.0871 75.7071 55.8128 76.0854C55.3562 76.754 55.084 77.5298 55.0234 78.3354C55.0234 78.3531 55.0372 78.3609 55.0511 78.3609C55.0546 78.3775 55.062 78.393 55.0728 78.4061C55.0836 78.4193 55.0974 78.4296 55.1131 78.4363C55.1288 78.4431 55.1458 78.446 55.1628 78.4448C55.1799 78.4436 55.1963 78.4383 55.2109 78.4295C55.8384 77.9964 56.5646 77.6083 57.0402 76.9948C57.3105 76.6381 57.5315 76.0501 57.0994 75.7071ZM56.0219 77.5769C55.7181 77.7984 55.4043 78.0042 55.1083 78.2374C55.2662 77.7984 55.4023 77.3554 55.6036 76.9321C55.6966 76.7291 55.8034 76.5326 55.9233 76.3441C56.1206 76.052 56.981 75.3151 57.0718 76.2696C57.1231 76.7929 56.3831 77.3143 56.0219 77.5769Z" fill="#263238"/>
<path d="M52.8224 78.6693C53.592 78.7829 54.3873 78.5634 55.143 78.4439C55.1595 78.4396 55.1746 78.4316 55.1874 78.4205C55.2001 78.4094 55.21 78.3954 55.2164 78.3798C55.2227 78.3642 55.2252 78.3473 55.2238 78.3305C55.2224 78.3137 55.217 78.2975 55.2082 78.2831C55.211 78.281 55.2133 78.2781 55.2149 78.2749C55.2165 78.2717 55.2174 78.2681 55.2174 78.2645C55.2174 78.2609 55.2165 78.2574 55.2149 78.2542C55.2133 78.2509 55.211 78.2481 55.2082 78.2459C54.6009 77.708 53.8618 77.3382 53.0651 77.1738C52.5994 77.0856 51.9403 77.213 51.8811 77.7873C51.8101 78.3282 52.3725 78.5987 52.8224 78.6693ZM52.2857 78.1714C51.6937 77.4188 52.8244 77.3541 53.1638 77.4325C53.384 77.4872 53.6002 77.5566 53.811 77.6403C54.2426 77.818 54.6648 78.0175 55.0759 78.2381C54.701 78.2753 54.332 78.3419 53.959 78.3929C53.5131 78.4517 52.6172 78.585 52.2857 78.1714Z" fill="#263238"/>
<path d="M32.7344 37.0859C32.7344 37.0859 42.9701 54.381 43.2443 55.5962C43.6647 57.4621 45.8926 75.8881 45.8926 75.8881L56.5486 75.6921C56.5486 75.6921 54.7134 59.4456 52.9749 54.0929C51.7238 50.2375 42.6898 37.4505 42.6898 37.4505L32.7344 37.0859Z" fill="#37474F"/>
<path d="M55.5758 74.0734C54.0465 74.0616 48.6257 74.0008 46.5892 74.189C46.5735 74.189 46.5754 74.2164 46.5892 74.2184C47.2898 74.3184 54.0445 74.1635 55.5738 74.1145C55.577 74.1157 55.5804 74.1161 55.5838 74.1157C55.5872 74.1152 55.5904 74.1141 55.5932 74.1122C55.5961 74.1103 55.5984 74.1078 55.6001 74.1049C55.6018 74.1019 55.6027 74.0986 55.6029 74.0953C55.603 74.0919 55.6024 74.0885 55.601 74.0855C55.5996 74.0824 55.5975 74.0797 55.5949 74.0775C55.5923 74.0754 55.5892 74.0739 55.5858 74.0732C55.5825 74.0725 55.5791 74.0725 55.5758 74.0734Z" fill="#263238"/>
<path d="M34.482 38.6728C35.1529 39.7175 35.8633 40.7406 36.5461 41.7774C37.2289 42.8143 37.9156 43.8511 38.5925 44.886C39.9422 46.9767 41.2578 49.081 42.5391 51.1991C43.1645 52.181 43.6994 53.2168 44.1375 54.294C44.5374 55.3714 44.8379 56.4828 45.0354 57.6142C45.2446 58.7491 45.3827 59.8957 45.511 61.0423C45.6425 62.2614 45.78 63.4812 45.9234 64.7016C46.2036 67.1986 46.4845 69.6957 46.766 72.1927C46.7995 72.4985 46.8331 72.8042 46.8647 73.1119C46.8647 73.157 46.7877 73.1649 46.7818 73.1119C46.468 70.6325 46.2075 68.1433 45.9234 65.6639C45.7813 64.4265 45.6399 63.1898 45.4991 61.9537C45.3669 60.8031 45.2406 59.6507 45.061 58.508C44.8963 57.3801 44.6456 56.2662 44.3112 55.176C43.9427 54.0471 43.449 52.9624 42.8391 51.942C41.6057 49.8271 40.2994 47.7495 38.993 45.67C37.6867 43.5904 36.3448 41.4932 34.9674 39.4391C34.7977 39.1863 34.6261 38.9335 34.4485 38.6845C34.4346 38.6708 34.4702 38.6532 34.482 38.6728Z" fill="#263238"/>
<path d="M36.0869 83.3601C35.6014 83.3307 23.0629 78.2856 22.7156 77.8074C22.7001 77.7792 22.6933 77.7472 22.6958 77.7153C22.6958 77.286 23.5661 75.7886 24.2923 73.8207C24.3377 73.6953 24.6613 73.1112 25.1092 72.3253C26.3544 70.1712 28.5251 66.4609 28.5251 66.4609L36.7203 69.6949L32.7973 75.5259L32.1876 76.9371C32.1876 76.9371 36.0336 80.8865 36.3572 81.4451C36.6809 82.0037 36.5704 83.3875 36.0869 83.3601Z" fill="#EB9481"/>
<path d="M36.0869 83.3551C35.6014 83.3257 23.0629 78.2807 22.7156 77.8024C22.7001 77.7743 22.6933 77.7423 22.6958 77.7103C22.6958 77.2811 23.5661 75.7836 24.2923 73.8158C24.3377 73.6904 24.6613 73.1063 25.1092 72.3203L32.8052 75.521L32.1955 76.9322C32.1955 76.9322 36.0415 80.8816 36.3651 81.4402C36.6888 81.9988 36.5704 83.3826 36.0869 83.3551Z" fill="white"/>
<path d="M36.0862 83.3596C35.6007 83.3302 23.0622 78.2852 22.7148 77.807C22.5807 77.6247 23.1411 75.9254 24.2935 73.8203L32.1868 76.9387C32.1868 76.9387 36.0329 80.8842 36.3585 81.4467C36.6841 82.0092 36.5696 83.3871 36.0862 83.3596Z" fill="#A6A6A6"/>
<path d="M36.1065 82.8023C34.0759 81.9359 25.7997 78.6314 23.7258 77.9297C23.708 77.9297 23.7041 77.9297 23.7258 77.9414C25.7208 78.843 34.0226 82.081 36.0986 82.8414C36.138 82.8512 36.1499 82.8199 36.1065 82.8023Z" fill="#263238"/>
<path d="M35.7543 80.6959C35.5291 80.5976 35.2859 80.5469 35.0399 80.5469C34.794 80.5469 34.5507 80.5976 34.3256 80.6959C33.9207 80.8719 33.5998 81.1963 33.4297 81.6014C33.4297 81.6131 33.4474 81.6229 33.4534 81.6112C33.686 81.2354 34.035 80.9446 34.448 80.7824C34.8611 80.6202 35.3159 80.5953 35.7444 80.7115C35.7477 80.7106 35.7506 80.7085 35.7524 80.7056C35.7542 80.7027 35.7549 80.6992 35.7543 80.6959Z" fill="#263238"/>
<path d="M32.9029 77.4559C32.0879 77.1169 31.0184 77.0267 30.2389 77.4912C30.2093 77.5089 30.2389 77.55 30.2646 77.5481C31.1335 77.4605 32.0093 77.4651 32.8773 77.5618C32.8906 77.5632 32.9041 77.5598 32.915 77.5521C32.926 77.5444 32.9338 77.533 32.937 77.5201C32.9401 77.5071 32.9384 77.4934 32.9321 77.4816C32.9259 77.4698 32.9155 77.4607 32.9029 77.4559Z" fill="#263238"/>
<path d="M33.442 77.9559C32.627 77.6169 31.5575 77.5267 30.778 77.9912C30.7484 78.0089 30.778 78.05 30.8036 78.0481C31.6725 77.9595 32.5485 77.9641 33.4163 78.0618C33.4297 78.0632 33.4431 78.0598 33.4541 78.0521C33.4651 78.0444 33.4729 78.033 33.476 78.0201C33.4792 78.0071 33.4775 77.9934 33.4712 77.9816C33.4649 77.9698 33.4545 77.9607 33.442 77.9559Z" fill="#263238"/>
<path d="M33.9742 78.4481C33.1572 78.109 32.0877 78.0189 31.3102 78.4834C31.2786 78.501 31.3102 78.5422 31.3338 78.5402C32.2027 78.4517 33.0787 78.4563 33.9465 78.554C33.9602 78.5562 33.9741 78.5533 33.9857 78.5459C33.9973 78.5384 34.0057 78.5269 34.0092 78.5136C34.0126 78.5003 34.011 78.4862 34.0045 78.4741C33.998 78.462 33.9872 78.4527 33.9742 78.4481Z" fill="#263238"/>
<path d="M34.5132 78.9484C33.6963 78.6093 32.6287 78.5192 31.8492 78.9817C31.8176 79.0013 31.8492 79.0425 31.8729 79.0405C32.7418 78.952 33.6177 78.9566 34.4856 79.0542C34.4992 79.0565 34.5132 79.0536 34.5248 79.0461C34.5364 79.0387 34.5447 79.0272 34.5482 79.0139C34.5517 79.0006 34.55 78.9865 34.5435 78.9744C34.5371 78.9623 34.5262 78.953 34.5132 78.9484Z" fill="#263238"/>
<path d="M25.0313 76.1998C24.1098 75.8352 23.5375 77.2601 24.463 77.6247C25.3885 77.9893 25.9627 76.5643 25.0313 76.1998Z" fill="#263238"/>
<path d="M34.6671 75.6311C34.3888 75.1235 33.7317 75.2489 33.3311 75.5018C32.6563 75.9508 32.112 76.5678 31.7525 77.2912C31.7509 77.2944 31.75 77.2979 31.75 77.3014C31.75 77.305 31.7507 77.3085 31.7523 77.3117C31.7538 77.3149 31.756 77.3177 31.7588 77.3199C31.7615 77.3222 31.7648 77.3237 31.7682 77.3245C31.7682 77.3892 31.8117 77.4657 31.8886 77.45C32.6365 77.2795 33.4554 77.1913 34.1264 76.7993C34.5112 76.5719 34.9295 76.1113 34.6671 75.6311ZM32.9601 76.962C32.5951 77.0541 32.228 77.1286 31.8669 77.2344C32.1656 76.8769 32.4824 76.5348 32.8161 76.2093C32.9803 76.054 33.1551 75.9099 33.339 75.7781C33.6252 75.5821 34.7065 75.2195 34.4303 76.1388C34.2783 76.6464 33.3962 76.8522 32.9601 76.962Z" fill="#263238"/>
<path d="M29.5838 76.7846C30.2548 77.1766 31.0737 77.2687 31.8196 77.4412C31.8966 77.4589 31.9479 77.3824 31.942 77.3158C31.9457 77.3154 31.9492 77.3141 31.9522 77.3119C31.9553 77.3098 31.9577 77.3069 31.9593 77.3035C31.9609 77.3002 31.9616 77.2965 31.9613 77.2928C31.961 77.2891 31.9598 77.2856 31.9578 77.2825C31.5988 76.5576 31.0544 75.9392 30.3791 75.4891C29.9844 75.2343 29.3234 75.1069 29.0432 75.6125C28.7629 76.1182 29.1912 76.5553 29.5838 76.7846ZM29.276 76.1221C29.0017 75.2029 30.0811 75.5675 30.3673 75.7654C30.551 75.8974 30.7251 76.0422 30.8882 76.1986C31.2213 76.5248 31.5374 76.8676 31.8354 77.2256C31.4743 77.1198 31.1073 77.0433 30.7422 76.9512C30.3002 76.8336 29.426 76.6376 29.276 76.1221Z" fill="#263238"/>
<path d="M33.4318 75.2009L24.2578 71.522C24.2578 71.522 35.6321 54.911 35.715 53.6742C35.79 52.5805 30.7935 43.051 30.5981 40.2737C30.385 37.2749 31.8374 34.9562 33.4358 33.5156L42.8979 37.5121C42.8979 37.5121 41.8994 39.0977 40.3326 39.9817C40.3326 39.9817 45.185 50.9969 44.9087 54.3837C44.6325 57.7706 33.4318 75.2009 33.4318 75.2009Z" fill="#37474F"/>
<path d="M33.8412 73.4642C32.5151 72.8978 32.9039 73.0409 31.5699 72.4842C30.9187 72.2138 26.6366 70.4439 25.9775 70.2969C25.9636 70.2969 25.9538 70.3165 25.9676 70.3243C26.5379 70.6712 30.8555 72.3666 31.5127 72.6254C32.8565 73.1506 32.4756 72.986 33.8254 73.4956C33.8274 73.4983 33.8301 73.5004 33.8332 73.5017C33.8362 73.5031 33.8396 73.5037 33.843 73.5034C33.8463 73.5031 33.8495 73.5019 33.8523 73.5C33.8551 73.4981 33.8573 73.4956 33.8588 73.4926C33.8603 73.4896 33.8611 73.4863 33.8609 73.483C33.8608 73.4796 33.8597 73.4764 33.858 73.4735C33.8562 73.4707 33.8537 73.4683 33.8508 73.4667C33.8479 73.4651 33.8446 73.4642 33.8412 73.4642Z" fill="#263238"/>
<path d="M41.8858 39.7751C40.9007 40.0031 39.9369 40.3139 39.0048 40.7041C39.001 40.7054 38.9976 40.7074 38.9946 40.71C38.9916 40.7126 38.9892 40.7158 38.9874 40.7194C38.9857 40.7229 38.9847 40.7268 38.9844 40.7307C38.9842 40.7346 38.9847 40.7386 38.986 40.7423C38.9873 40.7461 38.9893 40.7495 38.992 40.7525C38.9946 40.7554 38.9978 40.7578 39.0014 40.7596C39.005 40.7613 39.0088 40.7623 39.0128 40.7625C39.0168 40.7628 39.0208 40.7622 39.0245 40.7609C39.9914 40.4807 40.9742 40.218 41.9253 39.8868C41.9983 39.8613 41.9608 39.7594 41.8858 39.7751Z" fill="#263238"/>
<path d="M40.7577 39.3946C40.6657 39.5571 40.5846 39.7253 40.5149 39.8984C40.4468 40.0297 40.4046 40.1727 40.3906 40.3198C40.3906 40.3492 40.4301 40.355 40.4479 40.3374C40.5469 40.2198 40.6268 40.0875 40.6847 39.9454C40.7656 39.7906 40.8484 39.6377 40.9254 39.4789C40.9787 39.3633 40.8188 39.2888 40.7577 39.3946Z" fill="#263238"/>
<path d="M40.8813 38.5071C40.9405 38.3621 40.9977 38.219 41.0589 38.074C41.12 37.9289 41.197 37.78 41.2562 37.6271C41.2562 37.6036 41.3036 37.6271 41.2937 37.6447C41.2345 37.7898 41.197 37.9426 41.1516 38.0916C41.1062 38.2406 41.0549 38.3895 41.0056 38.5385C40.9128 38.8148 40.8082 39.0892 40.68 39.3578C40.8353 39.3655 40.9903 39.3387 41.1338 39.2794C41.2805 39.1862 41.3932 39.0488 41.4555 38.8874C41.5384 38.7266 41.6153 38.562 41.7002 38.4013C41.8046 38.2275 41.8925 38.0444 41.9626 37.8544C41.9626 37.8309 42.01 37.8544 42.0001 37.8721C41.8715 38.2738 41.7029 38.6618 41.4969 39.0304C41.4081 39.1735 41.3391 39.3244 41.1773 39.3793C41.0021 39.428 40.8188 39.4407 40.6385 39.4166C40.6149 39.4166 40.5872 39.4166 40.5951 39.3813C40.6759 39.0854 40.7714 38.7936 40.8813 38.5071Z" fill="#263238"/>
<path d="M40.4728 40.3384C40.8103 41.046 41.1063 41.7516 41.42 42.4572C41.7338 43.1628 42.012 43.8449 42.2942 44.5466C42.8586 45.9617 43.3638 47.4042 43.8078 48.8586C44.0268 49.5798 44.2301 50.307 44.4116 51.04C44.6116 51.7707 44.758 52.5149 44.8497 53.2666C44.9289 54.0171 44.8619 54.7757 44.6524 55.501C44.4347 56.218 44.1555 56.915 43.8176 57.5845C43.6104 58.0078 43.5414 57.951 43.64 57.7374C43.9222 57.1298 44.6622 55.2893 44.609 53.7429C44.5658 53.0025 44.4508 52.268 44.2656 51.5496C44.0933 50.8088 43.8992 50.0738 43.6835 49.3446C43.2631 47.906 42.7639 46.4968 42.2508 45.0895C41.9627 44.3055 41.6588 43.5215 41.3628 42.7375C41.0668 41.9535 40.7708 41.2322 40.4393 40.3659C40.4294 40.3306 40.463 40.3169 40.4728 40.3384Z" fill="#263238"/>
<path d="M33.5098 38.0012C33.6736 37.9404 33.9044 38.0404 34.0702 38.0678C34.2849 38.104 34.5018 38.1256 34.7194 38.1325C34.9348 38.14 35.1504 38.1328 35.3647 38.1109C35.5806 38.1054 35.7921 38.0497 35.9824 37.9483C36.2945 37.7224 36.5621 37.4413 36.7717 37.1192C37.0215 36.79 37.2277 36.4303 37.3854 36.049C37.3854 36.0255 37.4268 36.049 37.4189 36.0647C37.3499 36.2823 37.2986 36.5018 37.2216 36.7154C37.1365 36.9161 37.0349 37.1095 36.9177 37.2936C36.7277 37.664 36.4467 37.9809 36.1008 38.2148C35.7199 38.4304 35.2305 38.4108 34.8062 38.3932C34.5602 38.3789 34.3155 38.3468 34.0741 38.2971C33.9005 38.2599 33.6084 38.2325 33.4979 38.0815C33.4927 38.0758 33.4889 38.0689 33.4866 38.0615C33.4844 38.0541 33.4838 38.0463 33.4849 38.0386C33.4861 38.0309 33.4889 38.0236 33.4932 38.0171C33.4975 38.0107 33.5031 38.0052 33.5098 38.0012Z" fill="#263238"/>
<path d="M26.8811 69.777C28.3887 67.5086 29.8687 65.2219 31.3211 62.917C32.7734 60.612 34.2061 58.2894 35.619 55.9492C35.9564 55.3906 36.3452 54.8339 36.5622 54.2146C36.799 53.5423 36.6648 52.8896 36.4517 52.231C36.0493 51.0296 35.5789 49.8518 35.0428 48.703C34.5139 47.5447 33.9436 46.4059 33.3832 45.2632C32.8228 44.1206 32.2367 42.9916 31.8045 41.7999C31.4099 40.6612 31.25 39.4812 31.5579 38.3013C31.8657 37.1214 32.5287 36.0787 33.2214 35.0967C33.4029 34.838 33.5904 34.5812 33.7739 34.3127C33.7877 34.2931 33.8173 34.3127 33.8035 34.3362C33.0398 35.3593 32.2959 36.4432 31.8479 37.6447C31.619 38.2369 31.491 38.8629 31.4691 39.4969C31.4653 40.1405 31.5659 40.7804 31.767 41.3922C32.138 42.5839 32.7241 43.7109 33.2707 44.832C33.8173 45.9532 34.4014 47.1135 34.9402 48.2679C35.4959 49.4298 35.9899 50.6199 36.4202 51.8332C36.6037 52.3722 36.8148 52.9366 36.799 53.5148C36.7852 54.1479 36.4813 54.7183 36.1656 55.2514C34.7843 57.574 33.3694 59.8692 31.9288 62.1506C30.4883 64.432 29.0063 66.7135 27.5066 68.9714L26.9383 69.824C26.9087 69.8593 26.8574 69.8181 26.8811 69.777Z" fill="#263238"/>
<path d="M43.4223 26.9436C44.2768 28.8056 48.5925 31.3712 50.6132 31.6476C52.0655 31.8436 56.4819 31.9142 57.9954 31.6848C59.7714 31.4144 58.4138 26.6614 57.3659 26.7848C54.4848 27.118 52.0379 27.4904 51.2683 27.4904C50.329 27.4904 45.2477 25.8715 44.6359 25.6422C43.1362 25.0875 42.9389 25.8872 43.4223 26.9436Z" fill="#EB9481"/>
<path d="M43.4543 27.4417C44.5357 29.0313 48.1291 31.6303 48.1291 31.6303L48.6283 30.5327L50.28 26.9027C50.28 26.9027 46.9786 25.8737 44.806 25.4033C44.5503 25.3456 44.2903 25.3088 44.0285 25.2936C42.6413 25.2191 42.5209 26.0697 43.4543 27.4417Z" fill="#FD7E14"/>
<path d="M43.4543 27.4383C44.5357 29.0279 48.1291 31.6268 48.1291 31.6268L48.6283 30.5292C47.2885 28.9828 45.2184 26.6406 44.0285 25.2941C42.6413 25.2157 42.5209 26.0663 43.4543 27.4383Z" fill="#263238"/>
<path d="M47.4792 30.8933C47.7535 30.2249 48.973 27.5338 49.2769 26.9733C49.2966 26.9341 49.3282 26.938 49.3104 26.9733C48.7814 28.3115 48.1793 29.6201 47.5068 30.8933C47.4989 30.9168 47.4673 30.9089 47.4792 30.8933Z" fill="#263238"/>
<path d="M56.8438 26.8333C58.5961 26.6059 60.7648 26.2159 62.6019 26.9901C62.8083 27.0705 62.9814 27.2175 63.0933 27.4076C63.9221 27.7408 64.0129 28.2288 64.0129 28.2288C64.6897 28.7737 64.7134 29.2872 64.7134 29.2872C64.7134 29.2872 65.6843 29.6792 65.5363 30.3103C65.3745 31.0081 64.0444 30.3103 63.0775 30.3672C60.8575 30.5044 57.7495 31.3138 57.1082 31.4158L56.8438 26.8333Z" fill="#EB9481"/>
<path d="M60.6487 28.8882C61.2978 28.8441 61.9492 28.8441 62.5983 28.8882C63.3052 28.9763 64.0045 29.1172 64.6901 29.3096C64.6945 29.3112 64.6994 29.3109 64.7037 29.3089C64.7079 29.3069 64.7112 29.3032 64.7128 29.2988C64.7143 29.2944 64.7141 29.2896 64.712 29.2853C64.71 29.2811 64.7064 29.2778 64.7019 29.2763C63.4139 28.7744 62.0119 28.6333 60.6487 28.8686C60.6171 28.8647 60.6171 28.8902 60.6487 28.8882Z" fill="#263238"/>
<path d="M60.2358 26.8517C61.3191 26.9066 61.996 27.0791 63.0853 27.4044V27.3927C61.8855 26.8948 61.3941 26.8478 60.2298 26.8047C60.1923 26.8204 60.1943 26.8517 60.2358 26.8517Z" fill="#263238"/>
<path d="M60.4069 30.7031C60.1247 30.8344 60.1938 30.9814 60.7325 31.1049C61.2712 31.2284 63.511 31.2656 63.432 32.0418C63.3531 32.818 60.1938 32.72 59.3117 32.4456C58.4296 32.1712 57.1016 31.4185 57.1016 31.4185C57.7271 31.3146 59.1953 30.9207 60.4069 30.7031Z" fill="#EB9481"/>
<path d="M45.7726 29.9108C45.7588 30.2459 45.7272 30.587 45.6799 30.9261C45.6799 30.9123 45.6799 30.9006 45.6937 30.8888C45.7588 30.7124 45.8239 30.5321 45.9029 30.3616C45.9029 30.3616 45.9226 30.3616 45.9206 30.3616C45.8827 30.5484 45.8258 30.731 45.7509 30.9065C45.7154 30.9907 45.6819 31.0731 45.6444 31.1554C45.6207 31.3063 45.5931 31.4553 45.5635 31.6042C45.5043 31.8845 45.2379 33.0762 45.1688 33.2781C45.157 33.3192 45.1056 33.3094 45.1096 33.2624C45.1234 33.0429 45.3464 31.8022 45.3918 31.5199C45.4799 30.975 45.5979 30.4352 45.745 29.9029C45.7549 29.8931 45.7746 29.901 45.7726 29.9108Z" fill="#263238"/>
<path d="M43.7177 38.8254C43.1908 39.094 42.512 39.5114 39.4533 38.9136C39.256 38.8744 39.0705 38.8274 38.8771 38.7706C36.0099 37.916 32.5625 34.5664 32.375 34.3292C32.375 34.3292 36.9314 26.9929 42.7587 24.686C43.4789 24.4018 44.6708 24.9506 45.324 25.6346C45.5588 25.8796 46.0699 27.6809 45.8746 29.1391C45.6792 30.5974 44.2426 38.5569 43.7177 38.8254Z" fill="#FD7E14"/>
<path d="M43.307 29.0703C43.329 29.3803 43.2853 29.6915 43.1787 29.9837C43.1537 29.6736 43.1975 29.3618 43.307 29.0703Z" fill="white"/>
<path d="M41.3231 34.0703C41.3357 34.2246 41.3304 34.3798 41.3073 34.5329C41.2883 34.6871 41.2506 34.8385 41.1948 34.9837C41.1812 34.8288 41.1865 34.6728 41.2106 34.5192C41.2308 34.3658 41.2685 34.2152 41.3231 34.0703Z" fill="white"/>
<path d="M37.9475 30.2891C37.9697 30.5997 37.926 30.9116 37.8192 31.2044C37.7944 30.8936 37.8382 30.5813 37.9475 30.2891Z" fill="white"/>
<path d="M44.6122 33.8125C44.6248 33.9674 44.6195 34.1233 44.5964 34.277C44.5774 34.4313 44.5396 34.5826 44.4839 34.7278C44.4703 34.5729 44.4756 34.4169 44.4997 34.2633C44.5196 34.1092 44.5574 33.958 44.6122 33.8125Z" fill="white"/>
<path d="M40.2734 29.6401C40.4287 29.627 40.5849 29.6316 40.7391 29.6538C40.8945 29.6734 41.0469 29.7115 41.193 29.7675C40.8809 29.7898 40.5675 29.7464 40.2734 29.6401Z" fill="white"/>
<path d="M36.4453 33.2555C36.7574 33.2336 37.0707 33.277 37.3649 33.3829C37.0527 33.4078 36.7388 33.3643 36.4453 33.2555Z" fill="white"/>
<path d="M40.9609 37.1619C41.2731 37.1397 41.5864 37.1831 41.8805 37.2893C41.5683 37.3138 41.2545 37.2703 40.9609 37.1619Z" fill="white"/>
<path d="M35.2578 35.7399C35.5699 35.718 35.8832 35.7614 36.1774 35.8673C35.8652 35.8918 35.5514 35.8483 35.2578 35.7399Z" fill="white"/>
<path d="M43.2812 25.5602C43.5934 25.5383 43.9066 25.5817 44.2008 25.6876C43.8887 25.7094 43.5754 25.666 43.2812 25.5602Z" fill="white"/>
<path d="M42.1638 26.8125C42.064 26.9316 41.95 27.0382 41.8244 27.13C41.7021 27.2239 41.5697 27.3041 41.4297 27.3691C41.5288 27.2508 41.6414 27.1442 41.7652 27.0516C41.8886 26.9573 42.0223 26.8771 42.1638 26.8125Z" fill="white"/>
<path d="M36.0876 30.3594C35.9866 30.4775 35.8721 30.5834 35.7462 30.6749C35.6252 30.7706 35.4926 30.851 35.3516 30.9141C35.4531 30.7965 35.5676 30.6906 35.6929 30.5985C35.8143 30.5032 35.9468 30.4229 36.0876 30.3594Z" fill="white"/>
<path d="M43.6736 31.9688C43.5726 32.0874 43.458 32.194 43.3322 32.2863C43.2108 32.3816 43.0783 32.4618 42.9375 32.5254C43.0384 32.4067 43.153 32.3001 43.2789 32.2079C43.4009 32.1135 43.5333 32.0333 43.6736 31.9688Z" fill="white"/>
<path d="M38.7595 35.0391C38.6585 35.1578 38.544 35.2643 38.4181 35.3566C38.2966 35.4516 38.1641 35.5319 38.0234 35.5957C38.1244 35.477 38.239 35.3704 38.3648 35.2782C38.4868 35.1839 38.6192 35.1036 38.7595 35.0391Z" fill="white"/>
<path d="M45.5564 27.7656C45.4554 27.8843 45.3408 27.9909 45.215 28.0831C45.0927 28.1771 44.9603 28.2573 44.8203 28.3223C44.9213 28.2036 45.0358 28.097 45.1617 28.0047C45.2832 27.9097 45.4157 27.8295 45.5564 27.7656Z" fill="white"/>
<path d="M45.4589 31.3326C45.3394 31.2324 45.2321 31.1186 45.1392 30.9936C45.0431 30.8731 44.9623 30.7415 44.8984 30.6016C45.0184 30.7006 45.1257 30.8139 45.2181 30.9387C45.3124 31.061 45.3931 31.1931 45.4589 31.3326Z" fill="white"/>
<path d="M34.5057 33.7858C34.3862 33.6855 34.2789 33.5717 34.1861 33.4467C34.0911 33.3255 34.0103 33.194 33.9453 33.0547C34.0648 33.155 34.1721 33.2688 34.265 33.3938C34.3606 33.5145 34.4415 33.6461 34.5057 33.7858Z" fill="white"/>
<path d="M44.1229 36.6979C44.003 36.5988 43.8957 36.4856 43.8032 36.3608C43.7087 36.2393 43.6279 36.1078 43.5625 35.9688C43.682 36.069 43.7893 36.1828 43.8822 36.3078C43.9774 36.4281 44.0582 36.559 44.1229 36.6979Z" fill="white"/>
<path d="M39.3026 28.3776C39.1832 28.278 39.0759 28.1648 38.9829 28.0404C38.8888 27.9187 38.8081 27.7873 38.7422 27.6484C38.8621 27.7475 38.9695 27.8607 39.0619 27.9856C39.156 28.1073 39.2367 28.2387 39.3026 28.3776Z" fill="white"/>
<path d="M39.3886 38.3639C39.269 38.2636 39.1618 38.1498 39.0689 38.0248C38.9742 37.9034 38.8935 37.772 38.8281 37.6328C38.9481 37.7319 39.0554 37.8451 39.1478 37.9699C39.2428 38.0918 39.3235 38.224 39.3886 38.3639Z" fill="white"/>
<path d="M40.2069 32.4733C40.0885 32.3724 39.9819 32.2587 39.8892 32.1342C39.7928 32.014 39.712 31.8823 39.6484 31.7422C39.7673 31.8425 39.874 31.9563 39.9661 32.0813C40.0621 32.2018 40.1429 32.3334 40.2069 32.4733Z" fill="white"/>
<path d="M44.2579 27.5847C43.5139 27.4475 42.8154 25.9207 42.7266 24.8936C42.7266 24.8231 43.0739 24.2645 43.4705 23.5648C43.7113 23.1394 43.9658 22.6592 44.1691 22.2045C44.2105 22.1124 44.4532 22.424 44.4532 22.424L44.9821 22.816L46.7285 24.1469C46.3126 24.6425 45.9594 25.1869 45.6767 25.7678C45.6488 25.8308 45.6276 25.8965 45.6136 25.9638C45.6128 25.9749 45.6128 25.986 45.6136 25.9971C45.505 26.3852 44.9742 27.716 44.2579 27.5847Z" fill="#EB9481"/>
<path d="M45.6111 25.9772C45.6103 25.9883 45.6103 25.9994 45.6111 26.0105C45.5074 25.9803 45.4064 25.9416 45.3091 25.8949C43.397 25.005 44.2396 22.4609 44.2396 22.4609L44.9895 22.8294L46.7359 24.1603C46.32 24.6559 45.9668 25.2003 45.6841 25.7812C45.6528 25.8437 45.6283 25.9094 45.6111 25.9772Z" fill="#263238"/>
<path d="M48.7344 18.7344C48.7344 18.7344 49.6086 19.2851 49.6125 20.2651C49.6165 21.2451 49.2178 22.2036 49.135 22.2389C49.0521 22.2741 48.7344 18.7344 48.7344 18.7344Z" fill="#263238"/>
<path d="M44.3976 19.2447C43.8727 20.2737 43.9003 23.5175 44.5554 24.3525C45.5066 25.5637 47.3378 25.9812 48.4449 24.7837C49.5164 23.6233 49.4059 19.3976 48.6422 18.6097C47.5312 17.4454 45.1751 17.7218 44.3976 19.2447Z" fill="#EB9481"/>
<path d="M47.1879 21.8438C47.1879 21.8438 47.1701 21.8555 47.1721 21.8633C47.1839 22.0848 47.1602 22.3396 46.9609 22.418C46.9609 22.418 46.9609 22.4317 46.9609 22.4298C47.2076 22.3906 47.2352 22.0515 47.1879 21.8438Z" fill="#263238"/>
<path d="M46.9819 21.6176C46.6228 21.598 46.611 22.3114 46.9444 22.3291C47.2779 22.3467 47.2819 21.6333 46.9819 21.6176Z" fill="#263238"/>
<path d="M48.4005 21.8359C48.4005 21.8359 48.4183 21.8359 48.4183 21.8555C48.4065 22.077 48.4321 22.3318 48.6334 22.4083C48.6334 22.4083 48.6334 22.422 48.6334 22.42C48.3848 22.3828 48.3552 22.0437 48.4005 21.8359Z" fill="#263238"/>
<path d="M48.6062 21.602C48.9633 21.5805 48.9811 22.2939 48.6496 22.3135C48.3181 22.3331 48.3062 21.6197 48.6062 21.602Z" fill="#263238"/>
<path d="M46.7602 21.072C46.8544 21.0453 46.9473 21.0139 47.0384 20.9779C47.142 20.9593 47.2365 20.9068 47.3068 20.8289C47.3238 20.8004 47.3309 20.7671 47.327 20.7341C47.3231 20.7012 47.3083 20.6704 47.2851 20.6467C47.2317 20.6063 47.1684 20.5809 47.1018 20.573C47.0352 20.565 46.9677 20.5749 46.9062 20.6016C46.773 20.637 46.6577 20.7201 46.5826 20.8348C46.5675 20.8621 46.5607 20.8931 46.5629 20.9241C46.5651 20.9552 46.5762 20.9849 46.5949 21.0099C46.6136 21.0349 46.6391 21.054 46.6684 21.065C46.6977 21.076 46.7295 21.0784 46.7602 21.072Z" fill="#263238"/>
<path d="M48.8504 21.391C48.7544 21.3697 48.6596 21.3436 48.5663 21.3126C48.4623 21.299 48.3658 21.2514 48.292 21.1774C48.273 21.1501 48.2638 21.1173 48.2659 21.0842C48.2681 21.0511 48.2814 21.0197 48.3038 20.9951C48.3547 20.9519 48.4164 20.9231 48.4824 20.9117C48.5483 20.9003 48.6162 20.9068 48.6787 20.9304C48.8137 20.9582 48.9334 21.0351 49.0142 21.146C49.0311 21.1723 49.04 21.2029 49.0397 21.234C49.0395 21.2652 49.0301 21.2956 49.0127 21.3216C48.9954 21.3475 48.9708 21.3679 48.942 21.3803C48.9132 21.3926 48.8813 21.3963 48.8504 21.391Z" fill="#263238"/>
<path d="M46.6811 23.9327C46.7344 23.9857 46.7857 24.0562 46.8666 24.0641C46.9495 24.064 47.0316 24.0467 47.1073 24.0131C47.1073 24.0131 47.1211 24.0131 47.1073 24.0249C47.075 24.0679 47.0315 24.1015 46.9814 24.1218C46.9313 24.1422 46.8766 24.1487 46.8232 24.1405C46.7781 24.1283 46.7376 24.1032 46.7067 24.0684C46.6759 24.0335 46.656 23.9905 46.6495 23.9445C46.6479 23.9403 46.6481 23.9357 46.6499 23.9317C46.6518 23.9276 46.6552 23.9245 46.6594 23.9229C46.6636 23.9214 46.6682 23.9215 46.6723 23.9234C46.6763 23.9252 46.6795 23.9286 46.6811 23.9327Z" fill="#263238"/>
<path d="M47.9738 22.9875C47.9738 22.9875 47.9837 23.3168 47.9738 23.4716C47.6706 23.4397 47.3644 23.4502 47.0641 23.503C46.9931 23.5187 47.001 23.4618 47.0819 23.4246C47.3237 23.3148 47.5931 23.2793 47.8554 23.3227C47.8712 23.2815 47.8298 22.8131 47.8554 22.815C47.9748 22.8383 48.0904 22.8779 48.1988 22.9326C48.1988 22.2427 48.0883 21.5606 48.0982 20.8707C48.0982 20.8472 48.1357 20.8433 48.1396 20.8707C48.2798 21.6005 48.3459 22.3425 48.3369 23.0855C48.3389 23.1698 48.033 23.0189 47.9738 22.9875Z" fill="#263238"/>
<path d="M47.5276 23.3544C47.4489 23.56 47.3029 23.7332 47.1132 23.8464C46.8152 23.966 46.7185 23.6974 47.0184 23.4544C47.1757 23.3754 47.3518 23.3409 47.5276 23.3544Z" fill="#263238"/>
<path d="M47.2128 23.79C47.1813 23.8155 47.146 23.836 47.1082 23.8508C46.8339 23.9605 46.7254 23.743 46.9464 23.5234C47.0964 23.5352 47.2681 23.5901 47.2128 23.79Z" fill="#FF99BA"/>
<path d="M44.2507 22.0172C44.6118 22.127 45.0262 21.049 45.1446 20.6452C45.2472 20.2806 45.3656 19.1223 45.3834 19.0419C45.4011 18.9616 46.962 20.067 47.8658 19.8044C48.7696 19.5417 49.3833 18.7283 49.3971 18.35C49.4109 17.9718 48.2802 17.0114 47.3034 16.9624C46.3266 16.9134 45.0025 18.1384 45.0025 18.1384C45.1624 17.9581 45.3076 17.7654 45.4366 17.5621C45.4209 17.519 44.7894 17.7699 44.673 18.2168C44.673 18.2168 44.7993 17.6542 44.7519 17.6444C44.7045 17.6346 44.2132 18.1148 44.3237 18.4794C44.3237 18.4794 43.7554 18.9674 43.7041 19.5025C43.6527 20.0376 43.8264 21.8878 44.2507 22.0172Z" fill="#263238"/>
<path d="M48.513 19.5987C48.2442 19.7435 47.9547 19.8466 47.6546 19.9045C47.3177 19.9343 46.9786 19.8805 46.6679 19.7477C46.3549 19.6276 46.0642 19.4567 45.8075 19.242C45.5806 19.0578 45.3773 18.8324 45.1346 18.6677C45.0735 18.6246 45.0044 18.7128 45.0419 18.7677C45.4468 19.3358 46.0253 19.7592 46.6916 19.9751C47.001 20.0753 47.3314 20.094 47.6503 20.0294C47.9692 19.9648 48.2658 19.8191 48.511 19.6066C48.511 19.6066 48.5169 19.5987 48.513 19.5987Z" fill="#263238"/>
<path d="M44.6279 21.9197C44.6279 21.9197 44.0674 20.7908 43.5623 20.973C43.0571 21.1553 43.3649 22.7174 43.8839 23.0036C43.9475 23.0445 44.0187 23.0721 44.0933 23.085C44.1679 23.0978 44.2444 23.0956 44.3181 23.0784C44.3918 23.0612 44.4612 23.0294 44.5223 22.9849C44.5833 22.9404 44.6347 22.8841 44.6732 22.8194L44.6279 21.9197Z" fill="#EB9481"/>
<path d="M43.6615 21.4219C43.6615 21.4219 43.6497 21.4219 43.6615 21.4376C44.0207 21.6492 44.1667 22.0256 44.2535 22.4176C44.2372 22.3761 44.2119 22.3386 44.1796 22.3077C44.1472 22.2769 44.1085 22.2533 44.0661 22.2388C44.0237 22.2243 43.9786 22.2191 43.9339 22.2235C43.8893 22.228 43.8462 22.242 43.8075 22.2647C43.7957 22.2647 43.8075 22.2862 43.8075 22.2862C43.8781 22.2753 43.9504 22.2864 44.0144 22.318C44.0783 22.3496 44.1309 22.4001 44.1647 22.4626C44.2212 22.5673 44.2662 22.6777 44.2989 22.7919C44.3107 22.8292 44.3759 22.8194 44.3699 22.7782C44.4548 22.2902 44.1785 21.5512 43.6615 21.4219Z" fill="#263238"/>
<path d="M40.9256 26.9624C40.531 29.1831 42.9542 36.6644 44.5072 38.0619C46.818 40.1395 51.0903 41.5056 52.6393 41.9506C53.3142 42.1466 55.181 37.4288 54.4982 37.1172C53.036 36.4567 48.4934 35.0455 48.0612 34.6927C47.629 34.3399 45.0242 30.6022 43.8639 28.4501C42.3109 25.5532 41.121 25.8394 40.9256 26.9624Z" fill="#EB9481"/>
<path d="M53.3473 36.7031C53.3473 36.7031 55.364 37.2147 56.6645 37.6086C57.3906 37.8301 58.6023 38.3182 59.0621 38.7219C59.7488 39.3276 62.2312 42.2911 61.5208 42.9046C60.8775 43.4612 59.0699 40.6447 59.0699 40.6447C59.0699 40.6447 61.1459 43.326 60.2539 43.8532C59.362 44.3804 57.7301 40.9289 57.7301 40.9289C57.7301 40.9289 59.8001 43.7317 58.7878 44.1296C58.0221 44.4294 56.3803 41.3856 56.3803 41.3856C56.3803 41.3856 58.1445 43.8062 57.367 44.1492C56.5105 44.5294 54.8194 41.8128 54.8194 41.8128C52.704 42.3558 51.4647 41.754 50.6497 41.2248C50.4583 41.0955 53.3473 36.7031 53.3473 36.7031Z" fill="#EB9481"/>
<path d="M58.4119 39.6673C58.6684 39.9731 58.9289 40.2827 59.1558 40.6101C59.3828 40.9374 59.5979 41.2745 59.7932 41.6214C60.0579 42.0701 60.2698 42.5476 60.4247 43.0444C60.0853 42.182 59.29 40.9962 59.0631 40.6689C58.8362 40.3416 58.625 40.0025 58.4001 39.6751C58.3941 39.6673 58.406 39.6595 58.4119 39.6673Z" fill="#263238"/>
<path d="M57.207 40.4634C57.6451 40.8083 58.5627 42.0902 58.9159 42.9506C58.9317 42.9859 58.9159 42.9839 58.8903 42.9506C58.614 42.5253 57.4931 40.8789 57.1971 40.4693C57.1912 40.4634 57.2011 40.4575 57.207 40.4634Z" fill="#263238"/>
<path d="M56.0471 40.9682C56.5914 41.5353 57.0214 42.2006 57.314 42.9282C57.3278 42.9635 57.3002 42.9576 57.2785 42.9282C56.87 42.2677 56.5542 41.7522 56.0254 40.9859C56.0175 40.9682 56.0353 40.9506 56.0471 40.9682Z" fill="#263238"/>
<path d="M43.1265 27.1267C41.3249 24.5964 40.2474 25.5332 40.6085 28.2812C40.9479 30.8507 41.8537 33.9122 41.8537 33.9122L46.3924 31.7249C46.3924 31.7249 44.273 28.7476 43.1265 27.1267Z" fill="#FD7E14"/>
<path d="M44.2215 28.1172C44.2813 28.2601 44.3244 28.4094 44.3498 28.5621C44.3775 28.7153 44.3874 28.8712 44.3794 29.0266C44.3202 28.883 44.2778 28.733 44.2531 28.5797C44.2238 28.4274 44.2131 28.2721 44.2215 28.1172Z" fill="white"/>
<path d="M41.5312 29.6589C41.8209 29.5419 42.1325 29.4884 42.4449 29.5021C42.3009 29.5609 42.1506 29.603 41.997 29.6275C41.8436 29.6566 41.6872 29.6672 41.5312 29.6589Z" fill="white"/>
<path d="M41.652 25.7266C41.5298 26.013 41.3474 26.2703 41.1172 26.4812C41.2394 26.1947 41.4217 25.9375 41.652 25.7266Z" fill="white"/>
<path d="M45.4957 30.8438C45.4358 30.9871 45.3597 31.1232 45.2688 31.2495C45.1803 31.3773 45.0769 31.4944 44.9609 31.5983C45.0831 31.3119 45.2655 31.0546 45.4957 30.8438Z" fill="white"/>
<path d="M42.3379 32.3749C42.1932 32.3161 42.0561 32.2404 41.9294 32.1495C41.8006 32.0617 41.6827 31.959 41.5781 31.8438C41.8665 31.9651 42.1255 32.1462 42.3379 32.3749Z" fill="white"/>
<path d="M43.7169 27.8906C43.9597 28.2219 44.2103 28.5453 44.4589 28.8706C44.3958 28.706 44.3405 28.5394 44.2932 28.3708H44.305C44.3543 28.5002 44.4116 28.6276 44.4589 28.7628L44.53 28.9588C44.5361 28.9722 44.5413 28.986 44.5457 29C44.7431 29.2528 44.9404 29.5057 45.122 29.7644C45.3449 30.0741 45.56 30.3877 45.7771 30.7013C45.9942 31.0149 46.2132 31.4049 46.448 31.7205C46.4697 31.7479 46.0534 31.9165 46.008 31.938C45.9626 31.9596 45.9389 31.9223 45.9823 31.9086C46.0257 31.8949 46.3573 31.693 46.3612 31.6891C46.1441 31.3716 45.8935 31.0795 45.6666 30.7718C45.4397 30.4641 45.2147 30.1564 44.9957 29.8447C44.5517 29.2097 44.1452 28.5511 43.7031 27.9141L43.7169 27.8906Z" fill="#263238"/>
<path d="M40.7132 30.0988C40.7823 30.2321 40.8573 30.3634 40.9106 30.5006L40.9856 30.6712C40.881 30.1831 40.7882 29.6912 40.6797 29.2031C40.8889 29.9871 41.1 30.7888 41.2934 31.5845C41.4769 32.345 41.6999 33.1133 41.8065 33.8895C41.9441 33.8295 42.0867 33.7817 42.2327 33.7464C42.0862 33.8406 41.9284 33.9163 41.763 33.9718C41.5252 33.1825 41.3276 32.3818 41.171 31.5728C41.1217 31.3532 41.0763 31.1337 41.029 30.9142C40.9777 30.7809 40.9165 30.6535 40.8553 30.5222C40.7941 30.3909 40.7389 30.2439 40.6836 30.1047C40.6955 30.0969 40.7093 30.089 40.7132 30.0988Z" fill="#263238"/>
<path d="M41.9219 33.1546C42.5534 32.8018 45.1917 31.4455 45.7817 31.1946C45.8232 31.1769 45.8449 31.1946 45.8035 31.222C44.5511 31.9448 43.2599 32.5991 41.9357 33.182C41.9199 33.1859 41.9041 33.1644 41.9219 33.1546Z" fill="#263238"/>
<path d="M114.225 84.6815H54.1016L62.7941 35.7109H122.918L114.225 84.6815Z" fill="#FD7E14"/>
<path d="M83.3748 30.6406H63.6987L62.7969 35.7131H83.8543L83.3748 30.6406Z" fill="#FD7E14"/>
<g opacity="0.1">
<path d="M114.225 84.6815H54.1016L62.7941 35.7109H122.918L114.225 84.6815Z" fill="black"/>
<path d="M83.3748 30.6406H63.6987L62.7969 35.7131H83.8543L83.3748 30.6406Z" fill="black"/>
</g>
<path d="M61.5752 32.713C61.4437 32.1521 61.4437 31.5687 61.5752 31.0078C61.7068 31.5687 61.7068 32.1521 61.5752 32.713Z" fill="#263238"/>
<path d="M59.8213 33.2083C59.6204 33.0014 59.4473 32.7695 59.3063 32.5184C59.1584 32.2725 59.0424 32.0091 58.9609 31.7344C59.1625 31.9401 59.3356 32.1714 59.476 32.4223C59.6235 32.669 59.7395 32.9331 59.8213 33.2083Z" fill="#263238"/>
<path d="M58.564 34.5167C58.0095 34.3492 57.5012 34.0575 57.0781 33.6641C57.3548 33.7439 57.62 33.8585 57.8675 34.0051C58.1203 34.146 58.3543 34.3179 58.564 34.5167Z" fill="#263238"/>
<path d="M58.1231 36.2699C57.5583 36.4006 56.971 36.4006 56.4062 36.2699C56.971 36.1392 57.5583 36.1392 58.1231 36.2699Z" fill="#263238"/>
<path d="M58.6324 38.0078C58.4232 38.2063 58.1898 38.3782 57.9378 38.5194C57.6903 38.6659 57.4251 38.7805 57.1484 38.8604C57.3568 38.6608 57.5903 38.4889 57.8431 38.3489C58.0901 38.2016 58.3555 38.0869 58.6324 38.0078Z" fill="#263238"/>
<path d="M59.9443 39.2578C59.7763 39.8094 59.4826 40.3151 59.0859 40.7357C59.1663 40.4605 59.2824 40.197 59.4313 39.9517C59.5719 39.6997 59.7443 39.4665 59.9443 39.2578Z" fill="#263238"/>
<path d="M61.7086 39.6953C61.7774 39.9743 61.8105 40.2607 61.8072 40.5479C61.8115 40.8352 61.7783 41.1217 61.7086 41.4005C61.6379 41.1219 61.6047 40.8352 61.6099 40.5479C61.6066 40.2607 61.6398 39.9743 61.7086 39.6953Z" fill="#263238"/>
<path d="M63.4609 39.1992C63.6619 39.4062 63.835 39.6381 63.976 39.8892C64.1243 40.1346 64.2397 40.3981 64.3193 40.6732C63.9227 40.2526 63.6289 39.7469 63.4609 39.1953V39.1992Z" fill="#263238"/>
<path d="M64.7188 37.8906C64.9957 37.9698 65.261 38.0844 65.5081 38.2317C65.7609 38.3717 65.9943 38.5437 66.2027 38.7432C65.9258 38.6641 65.6604 38.5495 65.4134 38.4022C65.1606 38.2621 64.9271 38.0902 64.7188 37.8906Z" fill="#263238"/>
<path d="M65.1562 36.1292C65.7216 35.9986 66.3096 35.9986 66.875 36.1292C66.3096 36.2599 65.7216 36.2599 65.1562 36.1292Z" fill="#263238"/>
<path d="M64.6524 34.3995C64.8613 34.2011 65.0947 34.0299 65.347 33.8899C65.5936 33.7412 65.859 33.6258 66.1363 33.5469C65.7129 33.9409 65.2038 34.2326 64.6484 34.3995H64.6524Z" fill="#263238"/>
<path d="M63.3359 33.1458C63.4172 32.8713 63.5325 32.608 63.6793 32.3618C63.8203 32.1107 63.9934 31.8788 64.1943 31.6719C64.1147 31.9469 63.9992 32.2105 63.851 32.4559C63.71 32.707 63.5369 32.9389 63.3359 33.1458Z" fill="#263238"/>
<path d="M114.136 84.6851H53.8845L45.3281 37.4922H105.582L114.136 84.6851Z" fill="#FD7E14"/>
<path d="M66.2073 66.3417C67.5903 66.3417 68.7114 65.2281 68.7114 63.8544C68.7114 62.4808 67.5903 61.3672 66.2073 61.3672C64.8243 61.3672 63.7031 62.4808 63.7031 63.8544C63.7031 65.2281 64.8243 66.3417 66.2073 66.3417Z" fill="#263238"/>
<path d="M86.0042 66.3417C87.3872 66.3417 88.5083 65.2281 88.5083 63.8544C88.5083 62.4808 87.3872 61.3672 86.0042 61.3672C84.6212 61.3672 83.5 62.4808 83.5 63.8544C83.5 65.2281 84.6212 66.3417 86.0042 66.3417Z" fill="#263238"/>
<path d="M79.7074 66.7399L79.5693 66.4792C79.5575 66.4557 78.263 64.0802 75.6601 64.0802C73.2921 64.0802 72.7001 66.3165 72.6843 66.4126L72.6133 66.6968L72.0391 66.5596L72.1081 66.2734C72.1081 66.246 72.8146 63.4922 75.6601 63.4922C78.6201 63.4922 80.035 66.0951 80.0942 66.2068L80.2323 66.4655L79.7074 66.7399Z" fill="#263238"/>
<path d="M110.159 63.6612L110.117 63.4652C110.245 63.4377 110.372 63.4083 110.498 63.375L110.547 63.571C110.413 63.6043 110.289 63.6337 110.159 63.6612Z" fill="#263238"/>
<path d="M111.308 63.3476L111.245 63.1634C111.492 63.0791 111.739 62.987 111.977 62.887L112.054 63.0673C111.812 63.1692 111.561 63.2633 111.308 63.3476ZM112.779 62.7224L112.69 62.5499C112.921 62.4303 113.152 62.301 113.371 62.1579L113.473 62.3245C113.248 62.4793 113.013 62.6106 112.779 62.7224ZM114.136 61.8933L114.02 61.7345C114.233 61.5797 114.438 61.417 114.632 61.2504L114.762 61.3974C114.555 61.5758 114.357 61.7424 114.134 61.9011L114.136 61.8933ZM115.34 60.8506L115.196 60.7153C115.377 60.5193 115.549 60.3233 115.707 60.1273L115.863 60.2469C115.699 60.4625 115.523 60.6644 115.344 60.8584L115.34 60.8506ZM116.317 59.5962L116.149 59.4923C116.285 59.2733 116.407 59.0454 116.512 58.8102L116.694 58.8906C116.582 59.1358 116.456 59.3741 116.315 59.604L116.317 59.5962ZM116.97 58.1418L116.773 58.087C116.845 57.8411 116.898 57.5901 116.932 57.3363L117.13 57.3618C117.097 57.6283 117.043 57.8918 116.968 58.1497L116.97 58.1418ZM117.189 56.5738H116.992V56.517C116.992 56.2798 116.978 56.0388 116.954 55.8016L117.151 55.782C117.177 56.0262 117.191 56.2715 117.191 56.517L117.189 56.5738ZM116.834 55.0392C116.781 54.7865 116.715 54.5366 116.636 54.2904L116.834 54.2316C116.915 54.4864 116.984 54.7452 117.031 54.998L116.834 55.0392ZM116.366 53.5633C116.271 53.332 116.169 53.0948 116.042 52.8557L116.22 52.7675C116.34 53.0106 116.451 53.2536 116.548 53.4888L116.366 53.5633ZM115.675 52.1658C115.553 51.9522 115.419 51.7268 115.281 51.4955L115.449 51.3916C115.593 51.6248 115.729 51.8522 115.843 52.0698L115.675 52.1658ZM114.851 50.835C114.707 50.6194 114.561 50.4018 114.411 50.1842L114.574 50.0745C114.724 50.292 114.87 50.5096 115.014 50.7291L114.851 50.835ZM113.963 49.5374C113.815 49.3218 113.665 49.1043 113.519 48.8887L113.682 48.7789C113.828 48.9945 113.976 49.2121 114.124 49.4257L113.963 49.5374ZM113.081 48.2321C112.936 48.0126 112.796 47.7891 112.658 47.5657L112.826 47.4638C112.964 47.6872 113.104 47.9067 113.246 48.1262L113.081 48.2321ZM112.258 46.8856C112.123 46.6484 111.999 46.4132 111.887 46.1878L112.064 46.0996C112.175 46.323 112.299 46.5543 112.429 46.7895L112.258 46.8856ZM111.557 45.4744C111.453 45.2294 111.36 44.9804 111.273 44.7374L111.47 44.6747C111.553 44.9118 111.646 45.1568 111.749 45.3979L111.557 45.4744ZM111.044 43.9789C110.979 43.7241 110.922 43.4634 110.878 43.1949L111.076 43.1635C111.119 43.4144 111.172 43.6692 111.237 43.9201L111.044 43.9789ZM110.78 42.4109C110.76 42.1698 110.75 41.9268 110.75 41.6837V41.619H110.947V41.6818C110.947 41.9189 110.947 42.158 110.977 42.3932L110.78 42.4109ZM110.977 40.8429L110.78 40.8233C110.78 40.7704 110.789 40.7155 110.795 40.6586C110.819 40.4489 110.849 40.2392 110.884 40.0393L111.082 40.0726C111.048 40.2686 111.018 40.4744 110.995 40.6802C111.003 40.741 111.003 40.7939 110.987 40.8488L110.977 40.8429ZM111.251 39.318L111.054 39.2651C111.127 39.0064 111.212 38.7535 111.306 38.5124L111.49 38.583C111.4 38.8257 111.324 39.073 111.261 39.3239L111.251 39.318ZM121.084 38.1753C120.974 38.1753 120.859 38.1596 120.747 38.144C120.593 38.1224 120.439 38.0969 120.287 38.0675L120.327 37.8715C120.473 37.899 120.625 37.9244 120.775 37.946C120.881 37.9597 120.99 37.9695 121.094 37.9754L121.084 38.1753ZM121.895 38.1146L121.854 37.9186C122.102 37.8678 122.339 37.7764 122.556 37.6481L122.659 37.8147C122.427 37.9575 122.172 38.0609 121.905 38.1204L121.895 38.1146ZM111.82 37.8813L111.644 37.7892C111.77 37.5554 111.909 37.329 112.06 37.111L112.222 37.2228C112.078 37.4362 111.947 37.6581 111.829 37.8872L111.82 37.8813ZM119.516 37.8696C119.261 37.7893 119.011 37.6957 118.766 37.5893L118.847 37.409C119.084 37.5137 119.327 37.6046 119.575 37.6814L119.516 37.8696ZM123.265 37.258L123.101 37.1483C123.242 36.9458 123.325 36.7096 123.342 36.4642L123.539 36.478C123.522 36.7591 123.43 37.0306 123.271 37.2639L123.265 37.258ZM118.055 37.2286C117.824 37.0953 117.601 36.9494 117.386 36.7916L117.503 36.6348C117.712 36.7878 117.929 36.9292 118.154 37.0581L118.055 37.2286ZM112.708 36.6171L112.562 36.4858C112.74 36.2884 112.931 36.1019 113.132 35.9272L113.262 36.0742C113.068 36.2462 112.885 36.4295 112.713 36.623L112.708 36.6171ZM116.771 36.2859C116.574 36.1061 116.388 35.9156 116.212 35.7155L116.36 35.5862C116.531 35.7806 116.712 35.9657 116.903 36.1408L116.771 36.2859ZM123.194 35.7547C123.081 35.5307 122.925 35.331 122.734 35.1667L122.864 35.0197C123.074 35.1999 123.246 35.4189 123.371 35.6646L123.194 35.7547ZM113.876 35.5999L113.763 35.4392C113.984 35.2895 114.213 35.1514 114.448 35.0256L114.541 35.1981C114.314 35.3225 114.094 35.4586 113.882 35.6058L113.876 35.5999ZM115.719 35.0903C115.644 34.9844 115.571 34.8766 115.502 34.7649L115.245 34.8649L115.17 34.6846L115.397 34.5944C115.362 34.5356 115.326 34.4768 115.293 34.418L115.464 34.322C115.504 34.3906 115.543 34.4592 115.585 34.518C115.695 34.4788 115.808 34.4415 115.922 34.4062L115.979 34.6022C115.883 34.6316 115.782 34.663 115.691 34.6963C115.752 34.7924 115.816 34.8923 115.889 34.9766L115.719 35.0903ZM122.099 34.7532C121.908 34.6586 121.71 34.5787 121.507 34.514L121.376 34.4729L121.434 34.2769L121.568 34.32C121.779 34.3869 121.985 34.4702 122.183 34.5689L122.099 34.7532ZM116.735 34.4023L116.694 34.2063C116.948 34.1495 117.213 34.1024 117.483 34.0652L117.513 34.2612C117.252 34.3024 116.994 34.3514 116.741 34.4082L116.735 34.4023ZM120.623 34.2965C120.376 34.2534 120.115 34.22 119.849 34.1965L119.865 34.0005C120.139 34.024 120.406 34.0574 120.654 34.1024L120.623 34.2965ZM118.284 34.1828L118.27 33.9868C118.505 33.9731 118.74 33.9652 118.973 33.9652H119.07V34.1612H118.975C118.752 34.1671 118.519 34.173 118.29 34.1887L118.284 34.1828ZM114.949 33.7144C114.843 33.4752 114.752 33.2263 114.663 32.9735L114.86 32.9127C114.943 33.1597 115.036 33.4027 115.139 33.636L114.949 33.7144ZM114.45 32.2091C114.391 31.9562 114.341 31.6936 114.304 31.4251L114.501 31.3976C114.539 31.6564 114.586 31.9131 114.643 32.162L114.45 32.2091ZM114.229 30.6411C114.219 30.4647 114.213 30.2844 114.213 30.104C114.213 30.0198 114.213 29.9335 114.213 29.8492H114.411C114.411 29.9335 114.411 30.0158 114.411 30.1001C114.411 30.2765 114.411 30.4549 114.424 30.6254L114.229 30.6411ZM114.464 29.0731L114.266 29.0535C114.294 28.7948 114.332 28.5302 114.377 28.2695L114.574 28.3028C114.521 28.5635 114.484 28.8144 114.458 29.077L114.464 29.0731ZM114.734 27.5423L114.537 27.4953C114.6 27.2424 114.673 26.9876 114.754 26.7328L114.951 26.7936C114.862 27.0504 114.789 27.2993 114.728 27.5462L114.734 27.5423ZM115.208 26.0586L115.024 25.988C115.121 25.743 115.222 25.498 115.342 25.2609L115.52 25.3471C115.401 25.5823 115.297 25.8214 115.202 26.0704L115.208 26.0586ZM115.887 24.6611L115.715 24.5612C115.849 24.3358 115.993 24.1104 116.143 23.8948L116.305 24.0065C116.151 24.2221 116.011 24.4416 115.881 24.665L115.887 24.6611ZM116.777 23.3852L116.623 23.2617C116.788 23.0657 116.966 22.8579 117.15 22.6737L117.292 22.8089C117.106 22.9932 116.932 23.1892 116.771 23.3891L116.777 23.3852ZM117.85 22.2562L117.718 22.1112C117.915 21.9367 118.113 21.7642 118.324 21.5976L118.446 21.7525C118.235 21.9191 118.034 22.0896 117.844 22.2601L117.85 22.2562ZM119.075 21.288L118.963 21.1253C119.178 20.9783 119.403 20.8332 119.632 20.696L119.733 20.8626C119.504 21.0018 119.291 21.1449 119.07 21.2919L119.075 21.288ZM120.415 20.4785L120.323 20.306C120.555 20.1825 120.796 20.0649 121.037 19.9552L121.12 20.1335C120.869 20.2452 120.638 20.3628 120.409 20.4824L120.415 20.4785ZM121.842 19.8278L121.769 19.6435C122.018 19.5475 122.268 19.4475 122.517 19.375L122.58 19.571C122.33 19.6455 122.081 19.7356 121.836 19.8317L121.842 19.8278Z" fill="#263238"/>
<path d="M123.37 19.333L123.32 19.137C123.565 19.0743 123.715 19.0469 123.715 19.0469L123.75 19.2429C123.75 19.2429 123.608 19.2723 123.37 19.333Z" fill="#263238"/>
<path d="M126.856 18.0608C126.353 16.5124 122.982 17.069 123.639 19.0937C124.296 21.1184 127.359 19.6111 126.856 18.0608Z" fill="#263238"/>
<path d="M121.805 17.4439C121.831 16.7638 122.782 16.2405 124.128 16.4815C125.474 16.7226 126.739 17.6242 126.739 17.6242C126.739 17.6242 125.41 18.4239 124.051 18.5709C122.691 18.7179 121.78 18.1221 121.805 17.4439Z" fill="#EBEBEB"/>
<path d="M126.738 17.6216C126.04 17.6216 125.343 17.602 124.646 17.5805C123.95 17.5589 123.251 17.5236 122.555 17.4688C123.253 17.4688 123.952 17.4864 124.648 17.5079C125.345 17.5295 126.044 17.5648 126.738 17.6216Z" fill="#263238"/>
<path d="M123.156 16.8359C123.553 17.0244 123.927 17.2565 124.271 17.5278C124.073 17.4353 123.88 17.3306 123.695 17.2142C123.508 17.0987 123.328 16.9723 123.156 16.8359Z" fill="#263238"/>
<path d="M124.983 17.5547C124.626 17.842 124.239 18.0904 123.828 18.2956C124.187 18.0079 124.576 17.7595 124.988 17.5547H124.983Z" fill="#263238"/>
<path d="M125.188 17.1719C125.387 17.2668 125.561 17.4064 125.697 17.5796C125.597 17.5329 125.504 17.4743 125.418 17.4051C125.333 17.3364 125.255 17.2581 125.188 17.1719Z" fill="#263238"/>
<path d="M123.086 21.4735C123.506 22.0105 124.585 21.8811 125.535 20.9051C126.484 19.929 126.987 18.4609 126.987 18.4609C126.987 18.4609 125.432 18.5785 124.246 19.2449C123.06 19.9113 122.663 20.9345 123.086 21.4735Z" fill="#EBEBEB"/>
<path d="M126.991 18.4609C126.423 18.8529 125.87 19.2881 125.316 19.7095C124.761 20.1309 124.218 20.566 123.688 21.0148C124.256 20.6228 124.808 20.1897 125.361 19.7683C125.913 19.3469 126.452 18.9117 126.991 18.4609Z" fill="#263238"/>
<path d="M124.539 21.1683C124.645 20.9779 124.739 20.7816 124.821 20.5803C124.905 20.3785 124.976 20.1716 125.034 19.9609C124.929 20.1512 124.834 20.3475 124.752 20.5489C124.669 20.7511 124.598 20.9579 124.539 21.1683Z" fill="#263238"/>
<path d="M125.608 19.5327C125.146 19.5082 124.683 19.5325 124.227 19.6052C124.457 19.6189 124.687 19.6189 124.917 19.6052C125.149 19.594 125.379 19.5698 125.608 19.5327Z" fill="#263238"/>
<path d="M125.992 19.7229C126.045 19.6261 126.086 19.5235 126.115 19.4172C126.144 19.3116 126.161 19.2031 126.166 19.0938C126.061 19.2878 126.002 19.5029 125.992 19.7229Z" fill="#263238"/>
<path d="M126.853 18.0613C126.742 18.0973 126.622 18.0995 126.509 18.0679C126.396 18.0362 126.296 17.972 126.22 17.8835C126.144 17.7949 126.096 17.6859 126.082 17.5703C126.069 17.4547 126.09 17.3377 126.143 17.2341C126.197 17.1305 126.28 17.045 126.382 16.9884C126.484 16.9317 126.601 16.9066 126.718 16.916C126.835 16.9255 126.946 16.9691 127.038 17.0415C127.13 17.1138 127.198 17.2116 127.234 17.3224C127.282 17.4706 127.268 17.6315 127.197 17.77C127.126 17.9085 127.002 18.0133 126.853 18.0613Z" fill="#455A64"/>
<path d="M127.22 19.1787C127.108 19.2145 126.989 19.2167 126.876 19.185C126.763 19.1533 126.663 19.0892 126.587 19.0007C126.511 18.9122 126.463 18.8033 126.449 18.6878C126.436 18.5723 126.457 18.4554 126.51 18.3519C126.563 18.2483 126.646 18.1627 126.748 18.106C126.851 18.0493 126.967 18.0239 127.084 18.0331C127.201 18.0423 127.312 18.0857 127.404 18.1577C127.496 18.2297 127.564 18.3272 127.6 18.4378C127.624 18.5113 127.634 18.5888 127.627 18.6658C127.621 18.7428 127.6 18.8178 127.565 18.8866C127.529 18.9554 127.481 19.0166 127.421 19.0668C127.362 19.1169 127.294 19.1549 127.22 19.1787Z" fill="#455A64"/>
<path d="M62.5215 18.685C62.4269 19.5853 62.0823 20.4418 61.5262 21.1588C60.9701 21.8759 60.2243 22.4254 59.3721 22.746C58.5199 23.0665 57.5947 23.1456 56.6999 22.9743C55.8051 22.803 54.9757 22.3882 54.3045 21.776L51.8438 22.1346L53.0751 20.0218C52.7935 19.3343 52.6734 18.5921 52.7238 17.8516C52.7742 17.111 52.9939 16.3917 53.3662 15.7481C53.7384 15.1046 54.2534 14.5537 54.8721 14.1374C55.4907 13.7212 56.1968 13.4504 56.9365 13.3457C57.6763 13.241 58.4304 13.3052 59.1415 13.5333C59.8526 13.7614 60.502 14.1475 61.0404 14.6622C61.5787 15.1769 61.992 15.8067 62.2486 16.5037C62.5052 17.2008 62.5985 17.9468 62.5215 18.685Z" fill="white"/>
<path d="M62.5231 18.6866C62.4305 19.5864 62.089 20.4431 61.5364 21.162C61.2664 21.5256 60.9408 21.8451 60.5715 22.1087C60.2101 22.3823 59.8115 22.6034 59.3875 22.7653C58.9632 22.9313 58.5174 23.0369 58.0633 23.0789C57.8363 23.0992 57.6082 23.1037 57.3806 23.0926C57.1521 23.0868 56.9245 23.0632 56.6998 23.0221C55.7929 22.8564 54.9504 22.443 54.2666 21.8284L54.3239 21.8461L51.8671 22.2204L51.6875 22.2479L51.7783 22.0911L53.0017 19.9743V20.0586C52.713 19.3584 52.5903 18.6016 52.643 17.8468C52.6957 17.092 52.9224 16.3593 53.3056 15.7054C53.6884 15.0536 54.2146 14.4961 54.8448 14.0747C55.4741 13.6589 56.1899 13.39 56.9387 13.2882C57.6875 13.1863 58.4498 13.2542 59.1684 13.4867C59.8794 13.7269 60.5273 14.122 61.0648 14.6431C61.601 15.1628 62.0111 15.7971 62.2637 16.4977C62.5164 17.1983 62.6051 17.9468 62.5231 18.6866ZM62.5231 18.6866C62.6028 17.9505 62.5112 17.206 62.2552 16.5107C61.9993 15.8154 61.5859 15.1878 61.047 14.6764C60.508 14.165 59.858 13.7834 59.147 13.5611C58.436 13.3389 57.6831 13.2819 56.9464 13.3946C56.2171 13.5018 55.5224 13.774 54.9159 14.1903C54.3146 14.6099 53.8122 15.1543 53.4438 15.7858C53.081 16.4187 52.8671 17.1249 52.8182 17.8516C52.7702 18.5832 52.8889 19.3161 53.1655 19.9958L53.1833 20.039L53.1596 20.0801L51.9204 22.1891L51.8335 22.0597L54.2962 21.7167H54.3298L54.3535 21.7383C55.0118 22.3469 55.8276 22.7615 56.7096 22.9358C56.9294 22.9803 57.1525 23.0072 57.3766 23.0162C57.6006 23.0319 57.8255 23.0319 58.0495 23.0162C58.4988 22.9803 58.941 22.8833 59.3638 22.7281C59.7875 22.5749 60.1864 22.3609 60.5478 22.093C60.9156 21.8315 61.2416 21.5163 61.5147 21.1581C62.0744 20.4427 62.4235 19.5872 62.5231 18.6866Z" fill="#263238"/>
<path d="M55.2274 20.4533C55.2236 20.3884 55.2333 20.3234 55.2558 20.2624C55.2783 20.2014 55.3133 20.1456 55.3584 20.0985C55.4036 20.0515 55.458 20.0142 55.5183 19.9889C55.5785 19.9636 55.6434 19.9508 55.7089 19.9515C55.8428 19.9515 55.9713 20.0044 56.0661 20.0985C56.1608 20.1926 56.214 20.3202 56.214 20.4533C56.214 20.5863 56.1608 20.714 56.0661 20.808C55.9713 20.9021 55.8428 20.955 55.7089 20.955C55.6434 20.9557 55.5785 20.9429 55.5183 20.9176C55.458 20.8923 55.4036 20.855 55.3584 20.808C55.3133 20.7609 55.2783 20.7051 55.2558 20.6441C55.2333 20.5831 55.2236 20.5181 55.2274 20.4533ZM55.4247 19.2949L55.3102 15.4062H56.0996L55.9851 19.2949H55.4247Z" fill="#FD7E14"/>
<path d="M57.1024 20.4533C57.0986 20.3885 57.1082 20.3237 57.1306 20.2628C57.1531 20.202 57.1878 20.1463 57.2328 20.0993C57.2777 20.0522 57.3319 20.0149 57.3919 19.9894C57.452 19.964 57.5166 19.9511 57.5819 19.9515C57.7159 19.9515 57.8444 20.0044 57.9391 20.0985C58.0338 20.1926 58.0871 20.3202 58.0871 20.4533C58.0871 20.5863 58.0338 20.714 57.9391 20.808C57.8444 20.9021 57.7159 20.955 57.5819 20.955C57.5166 20.9554 57.452 20.9425 57.3919 20.9171C57.3319 20.8916 57.2777 20.8543 57.2328 20.8072C57.1878 20.7602 57.1531 20.7046 57.1306 20.6437C57.1082 20.5828 57.0986 20.518 57.1024 20.4533ZM57.2997 19.2949L57.1912 15.4062H57.9805L57.866 19.2949H57.2997Z" fill="#FD7E14"/>
<path d="M58.9774 20.4533C58.9736 20.3884 58.9833 20.3234 59.0058 20.2624C59.0283 20.2014 59.0633 20.1456 59.1084 20.0985C59.1536 20.0515 59.208 20.0142 59.2683 19.9889C59.3285 19.9636 59.3934 19.9508 59.4589 19.9515C59.5928 19.9515 59.7213 20.0044 59.8161 20.0985C59.9108 20.1926 59.964 20.3202 59.964 20.4533C59.964 20.5863 59.9108 20.714 59.8161 20.808C59.7213 20.9021 59.5928 20.955 59.4589 20.955C59.3934 20.9557 59.3285 20.9429 59.2683 20.9176C59.208 20.8923 59.1536 20.855 59.1084 20.808C59.0633 20.7609 59.0283 20.7051 59.0058 20.6441C58.9833 20.5831 58.9736 20.5181 58.9774 20.4533ZM59.1747 19.2949L59.0602 15.4062H59.8496L59.7371 19.2949H59.1747Z" fill="#FD7E14"/>
</svg>
