<svg width="25" height="24" viewBox="0 0 25 24" fill="none" xmlns="http://www.w3.org/2000/svg">
<path fill-rule="evenodd" clip-rule="evenodd" d="M14.1 7.3C14.1 6.60667 13.4933 6 12.8 6C12.1067 6 11.5 6.60667 11.5 7.3C11.5 7.99333 12.02 8.6 12.8 8.6C13.58 8.6 14.1 7.99333 14.1 7.3ZM11.3333 17H14.6667C15.1667 17 15.5 16.764 15.5 16.2921C15.5 15.8202 15.1667 15.5056 14.6667 15.5056H14C13.9167 15.5056 13.8333 15.427 13.8333 15.3483V11.573C13.8333 10.7079 13.0833 10 12.1667 10H11.3333C10.8333 10 10.5 10.3146 10.5 10.7865C10.5 11.2584 10.8333 11.573 11.3333 11.573H12C12.0833 11.573 12.1667 11.6517 12.1667 11.7303V15.2697C12.1667 15.3483 12.0833 15.427 12 15.427H11.3333C10.8333 15.427 10.5 15.7416 10.5 16.2135C10.5 16.6854 10.8333 17 11.3333 17ZM12.5 2C7 2 2.5 6.5 2.5 12C2.5 17.5 7 22 12.5 22C18 22 22.5 17.5 22.5 12C22.5 6.5 18 2 12.5 2Z" fill="#FD7E14"/>
</svg>
