<svg width="39" height="44" viewBox="0 0 39 44" fill="none" xmlns="http://www.w3.org/2000/svg">
  <g clip-path="url(#a)">
    <path d="M0 3.318v32.023c0 1.259.756 2.365 1.85 2.71l16.95 5.341c.457.144.941.144 1.398 0l16.95-5.34c1.095-.346 1.85-1.452 1.85-2.711V3.318C38.998 1.762 37.857.5 36.45.5H2.548C1.142.5 0 1.762 0 3.318" fill="#FD7E14"/>
    <path d="M32.003 32.213 7 25.42V14.162c0-4.506 3.615-7.19 8.058-5.982 1.59.432 3.133 1.327 4.445 2.565 1.312-.523 2.856-.58 4.445-.15 4.443 1.207 8.058 5.855 8.058 10.36v11.258zm-22.42-8.712 19.836 5.39v-8.637c0-3.06-2.456-6.218-5.474-7.038-1.322-.36-2.599-.22-3.596.39l-.85.52-.848-.982c-.997-1.153-2.274-1.985-3.596-2.345-3.018-.82-5.474 1.003-5.474 4.064V23.5z" fill="#fff"/>
  </g>
  <defs>
    <clipPath id="a">
      <path fill="#fff" d="M0 .5h39v43H0z"/>
    </clipPath>
  </defs>
</svg>
